<svg height="16" viewBox="0 0 24 16" width="16" xmlns="http://www.w3.org/2000/svg" aria-labelledby="tocTitleID tocDescID">
    <title id="tocTitleID">Table of Contents</title>
    <desc id="tocDescID">An illustration of three text list items</desc>
    <path d="m3.90825275 1.16756516v.76474185c0 .32190296-.10194138.5969729-.30582415.8252098-.20388276.22823691-.43445019.34235536-.69170227.34235536h-1.87272318c-.27164381 0-.51240537-.11411845-.72228469-.34235536-.20987932-.2282369-.3151188-.50330684-.31571846-.8252098v-.76474185c0-.32190296.10523949-.59697289.31571846-.8252098.21047898-.22823691.45124054-.34235536.72228469-.34235536h1.87272318c.25785174 0 .48841916.11411845.69170227.34235536.20328312.22823691.3052245.50330684.30582415.8252098zm20.09174725 0v.76474185c0 .30886085-.1052395.58067026-.3157185.81542822-.2104789.23475796-.4446443.35213694-.702496.35213694h-15.61322242c-.29862829 0-.54298779-.11056151-.73307848-.33168454-.1900907-.22112303-.28513605-.49945349-.28513605-.83499139v-.76474184c0-.32190296.09504535-.5969729.28513605-.8252098.19009069-.22823691.43445019-.34235537.73307848-.34235537h15.61322242c.2578517 0 .4920171.11737899.702496.35213695.210479.23475796.3157185.50656737.3157185.81542822zm-20.09174725 6.43983772v.8047574c0 .30886086-.10194138.57059227-.30582415.78519425-.20388276.21460197-.43445019.32190296-.69170227.32190296h-1.87272318c-.27164381 0-.51240537-.10730099-.72228469-.32190296-.20987932-.21460198-.3151188-.47633339-.31571846-.78519425v-.8047574c0-.32190296.10523949-.60349395.31571846-.84477297.21047898-.24127901.45124054-.36191852.72228469-.36191852h1.87272318c.25785174 0 .48841916.12063951.69170227.36191852.20328312.24127902.3052245.52287001.30582415.84477297zm20.09174725 0v.8047574c0 .30886086-.1052395.57059227-.3157185.78519425-.2104789.21460197-.4446443.32190296-.702496.32190296h-15.61322242c-.29862829 0-.54298779-.10404046-.73307848-.31212138-.1900907-.20808092-.28513605-.47307286-.28513605-.79497583v-.8047574c0-.3355379.09504535-.62068582.28513605-.85544378.19009069-.23475797.43445019-.35213695.73307848-.35213695h15.61322242c.2578517 0 .4920171.12063951.702496.36191853.210479.24127901.3157185.52287.3157185.84477296zm-20.09174725 6.47985332v.7247262c0 .3355379-.10194138.6174253-.30582415.8456622-.20388276.2282369-.43445019.3423554-.69170227.3423554h-1.87272318c-.27164381 0-.51240537-.1141185-.72228469-.3423554s-.3151188-.5101243-.31571846-.8456622v-.7247262c0-.34858.10523949-.6369885.31571846-.8652254.21047898-.2282369.45124054-.3423554.72228469-.3423554h1.87272318c.25785174 0 .48841916.1141185.69170227.3423554.20328312.2282369.3052245.5166454.30582415.8652254zm20.09174725 0v.7247262c0 .3355379-.1052395.6174253-.3157185.8456622-.2104789.2282369-.4446443.3423554-.702496.3423554h-15.61322242c-.29862829 0-.54298779-.1105615-.73307848-.3316845-.1900907-.2211231-.28513605-.506271-.28513605-.8554438v-.7247263c0-.34858.09504535-.6369885.28513605-.8652254.19009069-.2282369.43445019-.3423553.73307848-.3423553h15.61322242c.2578517 0 .4920171.1173789.702496.3521369.210479.234758.3157185.5199059.3157185.8554438z" fill="#fff"/>
</svg>
