<?xml version="1.0" encoding="UTF-8" standalone="no"?>
<svg width="23px" height="23px" viewBox="0 0 23 23" version="1.1" xmlns="http://www.w3.org/2000/svg" xmlns:xlink="http://www.w3.org/1999/xlink" aria-labelledby="infoTitleID infoDescID">
  <title id="infoTitleID">Info icon</title>
  <desc id="infoDescID">A circle with a letter "I" in its center</desc>
  <defs></defs>
  <g stroke="none" stroke-width="1" fill="none" fill-rule="evenodd">
    <g transform="translate(-10.000000, -159.000000)" fill="#fff">
      <path d="M21.5,182 C27.8512746,182 33,176.851275 33,170.5 C33,164.148725 27.8512746,159 21.5,159 C15.1487254,159 10,164.148725 10,170.5 C10,176.851275 15.1487254,182 21.5,182 Z M24.5934837,164.615234 C24.5934837,165.007282 24.4525937,165.344192 24.1708097,165.625977 C23.8890256,165.907761 23.5521149,166.048651 23.1600675,166.048651 C22.7680201,166.048651 22.4311094,165.907761 22.1493253,165.625977 C21.8675412,165.344192 21.7266513,165.007282 21.7266513,164.615234 C21.7266513,164.217061 21.8675412,163.878619 22.1493253,163.599898 C22.4311094,163.321177 22.7680201,163.181818 23.1600675,163.181818 C23.5521149,163.181818 23.8890256,163.321177 24.1708097,163.599898 C24.4525937,163.878619 24.5934837,164.217061 24.5934837,164.615234 Z M23.0498047,173.67516 L23.9778498,173.67516 C23.193755,175.347487 22.0972638,176.183638 20.6883434,176.183638 C20.1186495,176.183638 19.6898541,176.064188 19.4019442,175.825284 C19.1140344,175.58638 18.9700817,175.231093 18.9700817,174.759411 C18.9700817,174.483752 19.0895318,173.999826 19.3284357,173.307617 L20.4310636,170.137562 C20.5168239,169.892533 20.5597035,169.733266 20.5597035,169.659757 C20.5597035,169.586248 20.5428579,169.532648 20.5091664,169.498957 C20.4754748,169.465265 20.4218754,169.44842 20.3483665,169.44842 C20.0359537,169.44842 19.6684148,169.846587 19.2457386,170.642933 L18.3636364,170.642933 C19.1538569,168.933852 20.268725,168.079324 21.7082741,168.079324 C22.2167106,168.079324 22.611815,168.203368 22.8935991,168.45146 C23.1753832,168.699553 23.3162731,169.041058 23.3162731,169.475985 C23.3162731,169.794524 23.1906973,170.29989 22.9395419,170.992099 L21.8736683,173.895685 C21.7205248,174.30611 21.6439542,174.563387 21.6439542,174.667525 C21.6439542,174.734908 21.6638625,174.786976 21.7036799,174.82373 C21.7434972,174.860485 21.8001594,174.878862 21.8736683,174.878862 C22.0329376,174.878862 22.2366154,174.741035 22.4847079,174.465376 C22.7328004,174.189718 22.9211641,173.926315 23.0498047,173.67516 Z"></path>
    </g>
  </g>
</svg>
