<?xml version="1.0" encoding="UTF-8" standalone="no"?>
<svg width="38px" height="44px" viewBox="0 0 38 44" version="1.1" xmlns="http://www.w3.org/2000/svg" xmlns:xlink="http://www.w3.org/1999/xlink">
    <!-- Generator: Sketch 39.1 (31720) - http://www.bohemiancoding.com/sketch -->
    <title>Imported Layers</title>
    <desc>Created with Sketch.</desc>
    <defs></defs>
    <g id="Page-1" stroke="none" stroke-width="1" fill="none" fill-rule="evenodd">
        <g id="Desktop-HD" transform="translate(-32.000000, -10.000000)" fill="#333333">
            <g id="Imported-Layers" transform="translate(32.000000, 10.000000)">
                <polyline id="Fill-17" points="0 4.4796473 18.707282 0 37.1336278 4.23309464 36.3949594 5.53751611 1.10396617 5.53751611"></polyline>
                <polygon id="Fill-18" points="0.936170213 6.55319149 36.3325145 6.55319149 36.3325145 10.3624099 0.936170213 10.3624099"></polygon>
                <polygon id="Fill-19" points="0.936170213 38.3829787 36.3325145 38.3829787 36.3325145 40.9221877 0.936170213 40.9221877"></polygon>
                <polyline id="Fill-20" points="0.000403643939 41.1914894 37.9425303 41.1914894 37.9425303 43.096301 0 43.096301 0.000403643939 41.1914894"></polyline>
                <polyline id="Fill-21" points="1.34062144 11.4275601 1.78059333 11.2340426 4.13625936 11.2340426 4.55806728 11.4457783 4.76917306 14.8315252 4.98027884 20.3330098 4.98027884 25.6239733 4.76917306 32.2193582 4.73405604 36.6625692 4.13625936 36.8394879 2.02641249 36.8394879 1.3934988 36.6625692 1.14767964 32.2193582 0.936170213 25.6591951 0.936170213 20.3686365 1.14767964 14.8315252 1.34062144 11.4275601"></polyline>
                <polyline id="Fill-22" points="32.2342385 11.4275601 32.6738067 11.2340426 35.0294727 11.2340426 35.4516843 11.4457783 35.6623864 14.8315252 35.8730886 20.3330098 35.8730886 25.6239733 35.6623864 32.2193582 35.6276731 36.6625692 35.0294727 36.8394879 32.9200295 36.8394879 32.2871158 36.6625692 32.0404894 32.2193582 31.8297872 25.6591951 31.8297872 20.3686365 32.0404894 14.8315252 32.2342385 11.4275601"></polyline>
                <polyline id="Fill-23" points="11.6384938 11.4275601 12.0776584 11.2340426 14.4337281 11.2340426 14.855536 11.4457783 15.0666418 14.8315252 15.2777475 20.3330098 15.2777475 25.6239733 15.0666418 32.2193582 15.0319284 36.6625692 14.4337281 36.8394879 12.3238812 36.8394879 11.6905638 36.6625692 11.4447447 32.2193582 11.2340426 25.6591951 11.2340426 20.3686365 11.4447447 14.8315252 11.6384938 11.4275601"></polyline>
                <polyline id="Fill-24" points="22.8725363 11.4275601 23.3121046 11.2340426 25.6677706 11.2340426 26.0895785 11.4457783 26.3006843 14.8315252 26.5117901 20.3330098 26.5117901 25.6239733 26.3006843 32.2193582 26.2659709 36.6625692 25.6677706 36.8394879 23.5579237 36.8394879 22.92501 36.6625692 22.6787872 32.2193582 22.4680851 25.6591951 22.4680851 20.3686365 22.6787872 14.8315252 22.8725363 11.4275601"></polyline>
            </g>
        </g>
    </g>
</svg>