<svg viewBox="0 0 100 100" xmlns="http://www.w3.org/2000/svg"><g fill="#fff" fill-rule="evenodd"><path d="m20.5312017 91.3043478h59.513497c1.2006191 0 2.1739131-.973294 2.1739131-2.173913 0-.3822983-.1008154-.7578365-.2922774-1.0887357l-25.7859388-44.5652174c-.3886001-.6716082-1.1057054-1.0851774-1.8816356-1.0851774h-9.4292698c-.7956659 0-1.5277636.4346832-1.9086489 1.1332607l-24.2982884 44.5652174c-.5747365 1.0541176-.1861212 2.3745648.8679964 2.9493012.3192413.1740599.677043.2652642 1.0406524.2652642z"/><path d="m58.2338112 0c3.9857698 0 7.0754101 2.92605669 7.0754101 6.52173913 0 1.94814675-1.1751392 3.49748367-3.1329548 4.78763887-.7622726.5029309-1.2209368 1.3542647-1.2211436 2.2659686l-.0000001 17.2659447c0 1.4033895.3628136 2.7830137 1.0533233 4.0053358l29.9382305 52.9958632c.6905098 1.2223221 1.0533234 2.6019463 1.0533234 4.0053358 0 4.5023213-3.655118 8.1521739-8.1639346 8.1521739h-69.6705953c-1.3692898 0-2.7165851-.3439149-3.9178929-1.0000939-3.95568315-2.1606754-5.40829754-7.1143442-3.24450505-11.0643289l29.09149695-53.106279c.6571256-1.1995773 1.0015367-2.5449317 1.0015367-3.9122489l-.0000001-17.3410875c-.000193-.8514978-.3997534-1.6498707-1.0727831-2.1614374l-.1478555-.104365c-1.8735444-1.2352818-3.0298253-2.70631266-3.1268298-4.53659758l-.00663-.25182269c0-3.59709019 3.085096-6.52173913 7.07541-6.52173913zm0 5.43478261h-17.4163939c-.3341979 0-.655354.0973303-.9634683.29199092l-.1529759.10543374c-.2276736.17021467-.2742532.49276685-.1040386.72044045l.0538074.06119811.0627915.05193913.1617643.10919499c2.2021208 1.45291154 3.5596356 3.87504265 3.6577257 6.49699115l.0057053.3033755.0000002 17.3417027c0 2.2788621-.5740185 4.5211194-1.6692279 6.5204148l-29.0914969 53.106279c-.7212642 1.3166616-.2370594 2.9678845 1.0815017 3.6881097.4004359.2187263.8495344.3333646 1.3059643.3333646h69.6705953c1.5029388 0 2.7213115-1.2166175 2.7213115-2.7173913 0-.4677965-.1209379-.9276713-.3511078-1.3351119l-29.9382305-52.9958633c-1.1508495-2.0372034-1.7555389-4.336577-1.7555389-6.6755596l.0000002-17.2665599c.0005984-2.6392088 1.2800823-5.10829666 3.4230589-6.63488495l.2416409-.16570308c.2977633-.19621921.380081-.59667116.1838618-.89443446-.0526648-.07991901-.1224381-.14713032-.2042705-.1967699-.2372346-.14393755-.4815228-.22451299-.7328507-.24174888z" fill-rule="nonzero"/></g></svg>