<?xml version="1.0" encoding="UTF-8" standalone="no"?>
<svg width="17px" height="23px" viewBox="0 0 17 23" version="1.1" xmlns="http://www.w3.org/2000/svg" xmlns:xlink="http://www.w3.org/1999/xlink">
    <!-- Generator: Sketch 39 (31667) - http://www.bohemiancoding.com/sketch -->
    <title>speaker</title>
    <desc>Created with Sketch.</desc>
    <defs></defs>
    <g id="Page-1" stroke="none" stroke-width="1" fill="none" fill-rule="evenodd">
        <g id="03" transform="translate(-15.000000, -288.000000)" fill="#245E83">
            <g id="speaker" transform="translate(15.000000, 288.000000)">
                <g id="Group">
                    <g id="Shape">
                        <path d="M16.1221904,0.401414309 C15.8607427,0.267908302 15.5456647,0.286688963 15.3022334,0.449182513 L7.99719973,5.35297657 L0.794398841,5.35297657 C0.355300747,5.35297657 0,5.69960226 0,6.12665817 L0,16.6225984 C0,17.0504708 0.355300747,17.3966882 0.794398841,17.3966882 L8.00767439,17.3966882 L15.3181549,22.0583751 C15.4497167,22.1420715 15.6009709,22.1849404 15.7530631,22.1849404 C15.882949,22.1849404 16.0124159,22.1543197 16.1305701,22.0918536 C16.387409,21.9563062 16.5470429,21.6946018 16.5470429,21.4108505 L16.5470429,1.08609191 C16.5470429,0.798666129 16.3836381,0.534920316 16.1221904,0.401414309 L16.1221904,0.401414309 Z"></path>
                    </g>
                </g>
            </g>
        </g>
    </g>
</svg>