<svg viewBox="0 0 100 100" xmlns="http://www.w3.org/2000/svg"><g fill="#FFF"><path d="m55.6227664 40v-10.9816972c0-1.2005631.4447386-2.2302572 1.3342157-3.0890823.8894772-.858825 1.9338187-1.2888775 3.1330245-1.2901574h7.702184v6.5391015l14.2078094-10.6188404-14.2078094-10.5593242v6.6005376h-7.8252813c-3.5579086 0-6.6082065 1.2300012-9.1508934 3.6900038-2.542687 2.4600026-3.8146923 5.4095738-3.8160159 8.8487137v10.8607449z" transform="matrix(-1 0 0 1 129 0)"/><path d="m26.6227664 90v-10.9816972c0-1.2005631.4447386-2.2302572 1.3342157-3.0890823.8894772-.858825 1.9338187-1.2888775 3.1330245-1.2901574h7.702184v6.5391015l14.2078094-10.6188404-14.2078094-10.5593242v6.6005376h-7.8252813c-3.5579086 0-6.6082065 1.2300012-9.1508934 3.6900038-2.542687 2.4600026-3.8146923 5.4095738-3.8160159 8.8487137v10.8607449z" transform="matrix(1 0 0 -1 0 150)"/><g fill-rule="evenodd"><path d="m36.1711896 0c.7952259 0 1.5825239.11678603 2.361894.35035809.7793701.23357205 1.3385895.44226661 1.6776582.62608367.3390687.18381707.9354881.50929765 1.7892582.97644177v53.04711647h-41.11634795c-.26466873-.2667421-.47079323-.6253926-.61837349-1.0759518-.14758025-.4505591-.23600644-.8423796-.26527856-1.1754617v-52.7485865zm-15.8773502 11c-2.6260005.9445399-3.9390007 1.4168099-3.9390007 1.4168099.8613947 1.0405262 1.656859 2.1393299 2.3863927 3.2964109.2700118.4282536.5298575.8568906.7795373 1.2859111l-14.5207687.0008681v3l6.4238969.0000134c.8804258 3.5657294 2.3239844 6.8097976 4.3306759 9.7322048 1.0398193 1.5143213 2.176787 2.9231182 3.410903 4.2263908-3.5068695 3.0329696-7.8850877 5.246602-13.13321774 6.6415991 1.30042972 2.2665279 1.95064458 3.3997919 1.95064458 3.3997919 5.83922866-1.8768332 10.47451876-4.3674587 13.90587026-7.4718765.7278161.6172884 1.4851619 1.2034299 2.2700924 1.7596083 3.2815631 2.3252177 6.8996284 4.2293071 10.8541961 5.7122682 1.3246257-2.1759469 1.9869386-3.2639204 1.9869386-3.2639204-3.7993227-1.4042832-7.2042979-3.1143224-10.2149257-5.1301175-.8119265-.5436333-1.5953934-1.1239157-2.3504008-1.7408472 3.3115726-3.9242615 5.6922469-8.5457291 7.1440766-13.8651104l4.3889918-.0000045v-3l-12.2148765-.0011479c-.3495756-.7520023-.7243601-1.4925223-1.1243535-2.2215599-.7129337-1.2994097-1.4911578-2.5585071-2.3346725-3.7772922zm7.4469262 9.0006565c-1.3612535 4.5640835-3.3583061 8.3614158-5.9911579 11.3919968-1.0548712-1.0913671-2.041101-2.2689312-2.9598238-3.5334282-1.7358278-2.3891311-2.9991645-5.0087964-3.79001-7.858996z"/><path d="m94.1711896 45c.7952259 0 1.5825239.116786 2.361894.3503581.7793701.233572 1.3385895.4422666 1.6776582.6260837.3390687.183817.9354881.5092976 1.7892582.9764417v53.0471165h-41.116348c-.2646687-.2667421-.4707932-.6253926-.6183734-1.0759518-.1475803-.4505591-.2360065-.8423796-.2652786-1.1754617v-52.7485865zm-11.1769203 11h-7.8424068l-13.1518625 33h7.6962751l2.7277937-7.3487395h13.0057306l2.6303725 7.3487395h7.9398281zm-3.8794044 8.25 4.1351351 12.375h-8.5l4.272973-12.375z"/></g></g></svg>