<svg
  width="22"
  height="19"
  viewBox="0 0 22 19"
  version="1.1"
  xmlns="http://www.w3.org/2000/svg"
  aria-labelledby="2upTitleID 2upDescID"
>
  <title id="2upTitleID">Two-page mode</title>
  <desc id="2upDescID">An illustration of two rectangles in a row</desc>
  <g stroke="#fff" transform="translate(-250.000000, -8.000000)" stroke-width="1.5" fill="none" fill-rule="evenodd">
    <g transform="translate(146.000000, 0.000000)">
      <g transform="translate(105.000000, 9.000000)">
        <path d="M0.25,-3.37507799e-14 C0.111929,-3.37507799e-14 0,0.1119288 0,0.25 L0,16.4865716 C0,16.6246428 0.111929,16.7365716 0.25,16.7365716 L9.615854,16.7365716 C9.753925,16.7365716 9.865854,16.6246428 9.865854,16.4865716 L9.865854,0.25 C9.865854,0.1119288 9.753925,-3.37507799e-14 9.615854,-3.37507799e-14 L0.25,-3.37507799e-14 Z"></path>
        <path d="M9.87372,-3.37507799e-14 L9.87372,16.7365716 L19.489574,16.7365716 C19.627645,16.7365716 19.739574,16.6246428 19.739574,16.4865716 L19.739574,0.25 C19.739574,0.1119288 19.627645,-3.37507799e-14 19.489574,-3.37507799e-14 L9.87372,-3.37507799e-14 Z"></path>
      </g>
    </g>
  </g>
</svg>
