<svg
  viewBox="0 0 100 100"
  version="1.1"
  xmlns="http://www.w3.org/2000/svg"
  aria-labelledby="magnify-minusTitleID magnify-minusDescID"
>
  <title id="magnify-minusTitleID">Zoom out</title>
  <desc id="magnify-minusDescID">An icon of a minus symbol</desc>
  <g fill="#fff" fill-rule="evenodd">
    <path d="m2.3239824 87.3815869 25.8938394-23.8143095c-4.5929593-6.6937643-6.889439-14.1059452-6.889439-22.2365428 0-7.1360431 1.7567382-13.7186647 5.2702146-19.7478649 3.5134763-6.0292002 8.2852035-10.8003118 14.3151815-14.31333499 6.029978-3.51302314 12.6134488-5.26953471 19.7504125-5.26953471s13.7204346 1.75651157 19.7504126 5.26953471c6.029978 3.51302319 10.8017051 8.28413479 14.3151815 14.31333499 3.5134763 6.0292002 5.2702145 12.6118218 5.2702145 19.7478649s-1.7567382 13.7324143-5.2702145 19.7891137c-3.5134764 6.0566994-8.2852035 10.8415607-14.3151815 14.3545838-6.029978 3.5130232-12.6134489 5.2695347-19.7504126 5.2695347-8.5762743 0-16.3217363-2.5723212-23.2363861-7.7169637l-26.3063807 24.2302349c-1.27200216 1.1618413-2.76631826 1.742762-4.48294825 1.742762-1.826641 0-3.38971397-.6496687-4.68921892-1.949006s-1.94925743-2.8622087-1.94925743-4.688614c0-1.9364022.7746608-3.5955208 2.3239824-4.9773557zm58.3436469-19.9162976c7.1919692 0 13.3331041-2.5585716 18.4234048-7.6757149s7.635451-11.2712357 7.635451-18.4622772-2.5451503-13.3313843-7.635451-18.4210284-11.2314356-7.6344661-18.4234048-7.6344661-13.3331042 2.544822-18.4234049 7.6344661-7.635451 11.2299869-7.635451 18.4210284 2.5451503 13.3451339 7.635451 18.4622772 11.2314357 7.6757149 18.4234049 7.6757149zm-14.9374313-21.3256316h31.2878163v-9.5422233h-31.2878163z"/>
  </g>
</svg>
