<svg
  viewBox="0 0 100 100"
  version="1.1"
  xmlns="http://www.w3.org/2000/svg"
  aria-labelledby="magnify-plusTitleID magnify-plusDescID"
>
  <title id="magnify-plusTitleID">Zoom in</title>
  <desc id="magnify-plusDescID">An icon of a plus symbol</desc>
  <g fill="#fff" fill-rule="evenodd">
    <path d="m2.40305276 87.4017263 25.81133064-23.7730295c-4.5356618-6.5723551-6.8034928-14.000283-6.8034928-22.2837838 0-7.1236734 1.7429868-13.6948847 5.2289603-19.7136338 3.4859736-6.0187491 8.2577006-10.7953163 14.3151813-14.32970144 6.0574806-3.53438517 12.6547027-5.30157776 19.7916662-5.30157776 10.8429591 0 20.0964884 3.85236545 27.760588 11.5570964 7.6640996 7.7047309 11.4950036 16.9684802 11.4927136 27.791248 0 10.8799585-3.8309059 20.1574336-11.4927136 27.8324254-7.6618077 7.6749917-16.915337 11.5124876-27.760588 11.5124876-8.6312796 0-16.431747-2.5678624-23.4014021-7.7035871l-26.1413636 24.188234c-1.21699671 1.2147305-2.73881553 1.8220957-4.56545649 1.8220957s-3.3897139-.6485425-4.68921882-1.9456276c-1.29950493-1.297085-1.94925739-2.8572473-1.94925739-4.6804867 0-1.8781426.80216353-3.5343852 2.4064906-4.9687279zm58.34020784-19.878343c7.1369635 0 13.264347-2.5678623 18.3821503-7.7035871 5.1178034-5.1357247 7.676705-11.2928753 7.676705-18.4714518s-2.5589016-13.3082755-7.676705-18.3890972c-5.1178033-5.0808217-11.2451868-7.6212325-18.3821503-7.6212325-7.2469746 0-13.4156121 2.5404108-18.5059127 7.6212325s-7.6354509 11.2105207-7.6354509 18.3890972 2.5589016 13.3357271 7.676705 18.4714518c5.1178033 5.1357248 11.2726895 7.7035871 18.4646586 7.7035871zm-13.3594607-21.8685793h10.206958v10.1879511h7.2194718v-10.1879511h10.206958v-7.206028h-10.206958v-10.187951h-7.2194718v10.187951h-10.206958z"/>
  </g>

</svg>
