<svg
  width="20"
  height="16"
  viewBox="0 0 20 16"
  version="1.1"
  xmlns="http://www.w3.org/2000/svg"
  aria-labelledby="readAloudTitleID readAloudDescriptionID"
>
  <title id="readAloudTitleID">Read aloud</title>
  <desc id="readAloudDescriptionID">An illustration of headphones</desc>
  <g transform="translate(-212.000000, -9.000000)" fill="#fff" stroke="none" stroke-width="1" fill-rule="evenodd">
    <g transform="translate(146.000000, 0.000000)">
      <g transform="translate(66.000000, 8.000000)">
        <g transform="translate(10.000000, 8.200000) scale(-1, 1) rotate(-180.000000) translate(-10.000000, -8.200000) translate(0.000000, 0.200000)">
          <polygon points="16.2 0 14.4 0 14.4 7 16.2 7"></polygon>
          <path d="M9.98959325,15.0773216 C5.35414621,15.0773216 1.60303519,11.0610721 1.37018967,6.70460125 C0.697018953,6.32363105 0.0526829255,5.65267504 0.069376692,3.64950913 C0.10428184,-0.512919136 3.2882384,0.0489418427 3.2882384,0.0489418427 L3.2882384,6.93853032 C3.2882384,6.93853032 3.23533867,6.95081968 3.14428176,6.96138422 C3.40964761,10.550309 6.71913262,13.0575543 9.98959325,13.1368961 C13.1681298,13.2140819 16.6020592,10.5522494 16.8691595,6.96504947 C16.7575064,6.95383812 16.6909481,6.93853032 16.6909481,6.93853032 L16.6909481,0.0489418427 C16.6909481,0.0489418427 19.8749047,-0.512919136 19.909593,3.64950913 C19.92607,5.61688497 19.304715,6.29150623 18.644986,6.68368778 C18.4227638,11.0500763 14.6766392,15.0773216 9.98959325,15.0773216 Z"></path>
          <polygon points="3.8 0 5.6 0 5.6 7 3.8 7"></polygon>
        </g>
      </g>
    </g>
  </g>
</svg>
