<?xml version="1.0"?>
<svg xmlns="http://www.w3.org/2000/svg" xmlns:xlink="http://www.w3.org/1999/xlink" xmlns:svgjs="http://svgjs.com/svgjs" version="1.1" width="512" height="512" x="0" y="0" viewBox="0 0 453.227 453.227" style="enable-background:new 0 0 512 512" xml:space="preserve" class=""><g>
<g xmlns="http://www.w3.org/2000/svg">
	<g>
		<g>
			<path d="M139.453,120.747L1.107,259.093L139.453,397.44L277.8,259.093L139.453,120.747z M61.373,259.093l77.973-77.973     l78.08,77.973l-77.973,77.973L61.373,259.093z" fill="#ffffff" data-original="#000000" style="" class=""/>
			<path d="M395.88,125.44C358.333,88,309.267,69.227,260.093,69.227V0l-90.56,90.56l90.56,90.453v-69.12     c38.187,0,76.48,14.613,105.6,43.733c58.347,58.347,58.347,152.853,0,211.2c-29.12,29.12-67.413,43.733-105.6,43.733     c-20.693,0-41.28-4.373-60.48-12.907l-31.787,31.787c28.587,15.787,60.373,23.787,92.267,23.787     c49.173,0,98.24-18.773,135.787-56.213C470.867,322.027,470.867,200.427,395.88,125.44z" fill="#ffffff" data-original="#000000" style="" class=""/>
		</g>
	</g>
</g>
<g xmlns="http://www.w3.org/2000/svg">
</g>
<g xmlns="http://www.w3.org/2000/svg">
</g>
<g xmlns="http://www.w3.org/2000/svg">
</g>
<g xmlns="http://www.w3.org/2000/svg">
</g>
<g xmlns="http://www.w3.org/2000/svg">
</g>
<g xmlns="http://www.w3.org/2000/svg">
</g>
<g xmlns="http://www.w3.org/2000/svg">
</g>
<g xmlns="http://www.w3.org/2000/svg">
</g>
<g xmlns="http://www.w3.org/2000/svg">
</g>
<g xmlns="http://www.w3.org/2000/svg">
</g>
<g xmlns="http://www.w3.org/2000/svg">
</g>
<g xmlns="http://www.w3.org/2000/svg">
</g>
<g xmlns="http://www.w3.org/2000/svg">
</g>
<g xmlns="http://www.w3.org/2000/svg">
</g>
<g xmlns="http://www.w3.org/2000/svg">
</g>
</g></svg>
