<svg height="100" viewBox="0 0 100 100" width="100" xmlns="http://www.w3.org/2000/svg"><g fill="#fff" fill-rule="nonzero"><path d="m38.1709541 1.16927276c-19.3063792 2.35749181-30.77194642 17.49896974-28.52613175 35.69759164l.13778264.9919913c1.32289251 8.56612 5.97731071 16.3013047 12.66398421 21.5397034l.4377858.3337777-.8258922.2818912c-14.58776328 5.1516606-22.0584828 17.3847028-22.0584828 36.1118649 0 1.7258899 1.39911016 3.125 3.125 3.125h75c1.7258898 0 3.125-1.3991101 3.125-3.125l-.0091512-1.1274701c-.2805982-17.166151-7.012296-28.729242-19.9504605-34.1742942l-.7528883-.3076168.3448755-.2543479c4.6971412-3.6170055 8.2730972-8.807671 10.7017508-15.494037l.1033476-.3442854c.358088-1.4990563-.4382762-3.0639387-1.9085796-3.6353549l-12.6163943-2.9594748 15.5382502-5.2151308c1.4455508-.7155993 2.1089731-2.4138059 1.5313094-3.9197953l-.4286041-1.1171368c-7.4117992-18.89492742-19.4315183-27.95356137-35.6325014-26.40787614zm29.1727959 27.11931404-14.3051523 7.0850707-.3458164.1975825c-2.0674045 1.3537943-1.8055096 4.5808459.6002149 5.5158026l11.2601288 4.3765442-.0446544.1053935c-2.9998765 6.5205267-7.382434 10.7639749-13.2036694 12.8974938-2.9669838 1.087418-2.6299355 5.3880614.4702287 5.9999873l.9102021.1897523c14.1147108 3.1023497 21.4110943 12.2993394 22.233518 28.3448731h-68.59375l.06180046-.9883469c1.14099717-16.5385163 9.43185134-25.5919672 25.33818054-27.9334892 3.1343099-.4613921 3.6716909-4.7565726.7476649-5.9759387-8.9190789-3.7193999-15.42583-12.285691-16.6248777-22.0019293-1.8277808-14.8111472 7.2466638-26.79489813 22.9989376-28.71929813 12.5036466-1.191884 21.828781 5.37445053 28.2768952 20.37896473z"/><path d="m76.5037126 22.4247766c.9396111-1.4476971 2.8749067-1.8595821 4.3226037-.9199711 6.1870578 4.0156385 9.4236837 9.4774446 9.4236837 16.1212874s-3.2366259 12.105649-9.4236837 16.1212875c-1.447697.939611-3.3829926.527726-4.3226037-.9199711s-.527726-3.3829927.9199711-4.3226038c4.4796088-2.9074384 6.5763163-6.4456323 6.5763163-10.8787126 0-4.4330802-2.0967075-7.9712741-6.5763163-10.8787125-1.4476971-.9396111-1.8595822-2.8749067-.9199711-4.3226038z"/><path d="m86.6767674 19.1839853c1.0725964-1.3521215 3.0382187-1.5787214 4.3903402-.506125 6.0793735 4.82258 9.1828924 11.2235876 9.1828924 18.9482326 0 7.7246451-3.1035189 14.1256527-9.1828924 18.9482327-1.3521215 1.0725964-3.3177438.8459965-4.3903402-.506125-1.0725964-1.3521216-.8459966-3.3177439.506125-4.3903403 4.5872931-3.6389585 6.8171076-8.2379508 6.8171076-14.0517674 0-5.8138165-2.2298145-10.4128088-6.8171076-14.0517673-1.3521216-1.0725964-1.5787214-3.0382187-.506125-4.3903403z"/></g></svg>