<svg xmlns="http://www.w3.org/2000/svg" width="23" height="23" aria-labelledby="gearTitleID gearDescID"><desc>A two-dimensional illustration of a gear</desc><g fill="#fff" fill-rule="evenodd"><path d="M11.026.21h.894c.016.003.033.009.05.01.204.012.41.02.614.035.435.035.869.086 1.294.189.35.084.6.366.648.722.078.598.157 1.195.232 1.793.007.056.03.078.079.096.099.036.197.075.29.12.054.026.09.022.137-.015.46-.356.92-.709 1.381-1.063.355-.272.71-.288 1.083-.045.664.433 1.256.953 1.814 1.512.55.551 1.059 1.136 1.484 1.79.232.357.213.721-.047 1.06-.359.466-.717.933-1.077 1.398-.03.04-.035.07-.014.117.046.097.088.196.123.297.02.056.05.079.107.085.579.074 1.157.151 1.735.224.417.052.693.295.785.705.115.519.17 1.045.198 1.575.034.6.03 1.2-.015 1.8a9.18 9.18 0 0 1-.191 1.369.85.85 0 0 1-.733.663l-1.793.233c-.048.006-.071.025-.088.07a3.67 3.67 0 0 1-.125.304c-.025.051-.02.084.015.13.356.459.71.92 1.064 1.38.275.359.29.712.044 1.09-.421.642-.921 1.218-1.462 1.761-.562.565-1.16 1.09-1.83 1.526-.366.239-.727.221-1.072-.044-.466-.359-.932-.718-1.4-1.075-.022-.017-.064-.028-.088-.019a5.119 5.119 0 0 0-.352.144.094.094 0 0 0-.046.062c-.081.602-.16 1.205-.238 1.807a.855.855 0 0 1-.655.732 9.49 9.49 0 0 1-1.55.205l-.534.03h-.63c-.063-.005-.126-.011-.189-.014a10.79 10.79 0 0 1-1.838-.207c-.39-.082-.66-.361-.71-.74-.08-.602-.158-1.205-.24-1.807a.109.109 0 0 0-.054-.07c-.104-.049-.212-.087-.316-.134-.048-.023-.081-.02-.124.014-.463.359-.929.715-1.393 1.072-.345.266-.705.281-1.071.043-.665-.432-1.257-.951-1.816-1.51-.553-.555-1.065-1.144-1.492-1.803-.225-.346-.207-.714.044-1.041.357-.465.713-.93 1.072-1.393.042-.053.048-.093.017-.154a2.722 2.722 0 0 1-.123-.297c-.015-.042-.038-.056-.079-.061-.576-.074-1.151-.15-1.728-.223-.461-.059-.726-.3-.82-.755a11.136 11.136 0 0 1-.208-2.059c-.002-.077-.007-.155-.01-.233v-.029c.002-.022.007-.043.007-.065.013-.31.018-.62.038-.93a8.71 8.71 0 0 1 .19-1.383.848.848 0 0 1 .684-.654c.26-.04.522-.07.783-.104.353-.046.707-.093 1.06-.137.047-.006.07-.026.087-.07.038-.106.08-.21.128-.31.021-.047.017-.078-.014-.117L1.97 6.419c-.267-.346-.284-.707-.047-1.071.435-.669.957-1.265 1.52-1.826.554-.55 1.14-1.061 1.798-1.486.346-.224.714-.205 1.04.047.47.36.937.72 1.407 1.079.024.018.068.032.094.023.12-.043.236-.092.351-.144a.093.093 0 0 0 .048-.061c.08-.59.158-1.18.233-1.771.054-.417.3-.691.71-.78.482-.106.971-.16 1.464-.191l.438-.028m-.99 1.8c-.002.006-.006.013-.006.02-.074.559-.15 1.117-.22 1.677-.046.374-.236.636-.595.76-.409.14-.806.306-1.195.494-.32.155-.631.12-.916-.095-.321-.243-.639-.49-.958-.736l-.438-.336c-.763.6-1.441 1.276-2.036 2.036l.049.066c.34.443.683.885 1.022 1.33.21.276.255.581.106.895A12.76 12.76 0 0 0 4.33 9.37a.804.804 0 0 1-.68.552c-.563.081-1.128.15-1.692.22-.067.009-.086.036-.09.094-.024.411-.059.823-.072 1.235-.017.493.016.986.072 1.476.005.045.001.09.07.098.537.068 1.073.144 1.61.206.409.048.683.25.811.645.128.392.293.77.474 1.14.162.329.126.644-.096.934-.313.41-.628.817-.942 1.226l-.125.164a12.07 12.07 0 0 0 2.035 2.035l.074-.055c.441-.339.882-.68 1.325-1.017.271-.206.573-.254.882-.109.415.195.837.372 1.269.526.306.11.49.341.54.665.055.361.098.725.145 1.088l.09.687c.015.005.024.01.034.01.15.016.3.035.451.047.779.057 1.556.049 2.333-.041.045-.006.066-.018.072-.068.07-.55.145-1.099.215-1.648.048-.378.242-.637.605-.76a9.31 9.31 0 0 0 1.16-.482c.336-.167.656-.133.954.096l.994.763.385.295.02-.01a11.909 11.909 0 0 0 1.988-1.98c.035-.045.014-.068-.01-.1-.347-.45-.697-.9-1.04-1.353-.2-.265-.242-.563-.101-.863.197-.42.373-.847.531-1.283.113-.312.355-.49.685-.536.527-.073 1.054-.14 1.582-.208.172-.023.172-.023.196-.197l.007-.058a11.84 11.84 0 0 0 .043-1.844c-.013-.246-.04-.491-.06-.737-.004-.039-.008-.071-.065-.078-.559-.07-1.118-.145-1.676-.218-.358-.047-.608-.238-.727-.576a11.223 11.223 0 0 0-.5-1.209c-.157-.32-.12-.63.095-.915.176-.234.357-.465.535-.698l.538-.699a12.01 12.01 0 0 0-2.036-2.036l-.066.05c-.443.34-.886.682-1.33 1.02-.267.204-.565.258-.868.117a16.978 16.978 0 0 0-1.304-.54.782.782 0 0 1-.52-.654c-.066-.436-.118-.875-.176-1.313a200.5 200.5 0 0 0-.062-.466c-.617-.118-2.427-.116-2.877.002"/><path d="M11.474 17.032a5.443 5.443 0 0 1-5.437-5.438 5.44 5.44 0 0 1 5.441-5.434 5.44 5.44 0 0 1 5.43 5.437 5.444 5.444 0 0 1-5.434 5.435m-.002-9.167a3.735 3.735 0 0 0-3.728 3.722 3.73 3.73 0 0 0 7.458.012 3.735 3.735 0 0 0-3.73-3.734Z"/></g></svg>