<svg xmlns="http://www.w3.org/2000/svg" width="28" height="23" aria-labelledby="speakerOpenTitleID speakerOpenDescID"><desc>An illustration of an audio speaker with two arcs denoting sound waves</desc><g fill="none" fill-rule="evenodd"><path fill="#fff" d="M16.122.401a.81.81 0 0 0-.82.048L7.997 5.353H.794A.784.784 0 0 0 0 6.127v10.496c0 .427.355.774.794.774h7.214l7.31 4.661a.81.81 0 0 0 .813.034.77.77 0 0 0 .416-.681V1.086a.77.77 0 0 0-.425-.685"/><path stroke="#fff" stroke-linecap="square" stroke-width="2" d="M20.196 7.27s2.215 1.384 2.133 4.23-2.133 4.23-2.133 4.23M23.281 3.91s3.398 2.212 3.41 7.59-3.41 7.59-3.41 7.59"/></g></svg>