<svg width="28" height="23" xmlns="http://www.w3.org/2000/svg" aria-labelledby="speakerOpenTitleID speakerOpenDescID"><g fill="none" fill-rule="evenodd"><path d="M16.122.401a.814.814 0 00-.82.048L7.997 5.353H.794A.784.784 0 000 6.127v10.496c0 .427.355.774.794.774h7.214l7.31 4.661a.81.81 0 00.813.034.772.772 0 00.416-.681V1.086a.77.77 0 00-.425-.685z" fill="#fff"/><path d="M20.196 7.27s2.215 1.384 2.133 4.23c-.081 2.846-2.133 4.23-2.133 4.23M23.281 3.91s3.398 2.212 3.41 7.59c.012 5.378-3.41 7.59-3.41 7.59" stroke="#fff" stroke-width="2" stroke-linecap="square"/></g></svg>