<svg xmlns="http://www.w3.org/2000/svg" width="38" height="44"><g fill="#333" fill-rule="evenodd"><path d="M0 4.48 18.707 0l18.427 4.233-.739 1.305H1.104M.936 6.553h35.397v3.81H.936zM.936 38.383h35.397v2.54H.936zM0 41.191h37.943v1.905H0v-1.905M1.34 11.428l.44-.194h2.356l.422.212.211 3.386.211 5.501v5.291l-.21 6.595-.036 4.444-.598.176h-2.11l-.633-.176-.245-4.444-.212-6.56v-5.29l.212-5.537.193-3.404M32.234 11.428l.44-.194h2.355l.423.212.21 3.386.211 5.501v5.291l-.21 6.595-.035 4.444-.599.176H32.92l-.633-.176-.247-4.444-.21-6.56v-5.29l.21-5.537.194-3.404M11.638 11.428l.44-.194h2.356l.422.212.21 3.386.212 5.501v5.291l-.211 6.595-.035 4.444-.598.176h-2.11l-.633-.176-.246-4.444-.211-6.56v-5.29l.21-5.537.194-3.404M22.873 11.428l.44-.194h2.355l.422.212.21 3.386.212 5.501v5.291l-.211 6.595-.035 4.444-.598.176h-2.11l-.633-.176-.246-4.444-.21-6.56v-5.29l.21-5.537.194-3.404"/></g></svg>