<svg xmlns="http://www.w3.org/2000/svg" width="16" height="16" aria-labelledby="tocTitleID tocDescID" viewBox="0 0 24 16"><path fill="#fff" d="M3.908 1.168v.764c0 .322-.102.597-.306.826-.203.228-.434.342-.691.342H1.038c-.272 0-.512-.114-.722-.342A1.18 1.18 0 0 1 0 1.932v-.764C0 .846.105.57.316.342.526.114.767 0 1.038 0h1.873c.258 0 .488.114.691.342.204.229.306.504.306.826zm20.092 0v.764c0 .31-.105.581-.316.816-.21.234-.444.352-.702.352H7.369a.923.923 0 0 1-.734-.332c-.19-.22-.285-.5-.285-.835v-.765c0-.321.095-.597.285-.825A.91.91 0 0 1 7.37.001h15.613c.258 0 .492.117.702.352.21.235.316.507.316.815zM3.908 7.608v.804c0 .309-.102.57-.306.785-.203.215-.434.322-.691.322H1.038a.983.983 0 0 1-.722-.322A1.084 1.084 0 0 1 0 8.412v-.805c0-.322.105-.603.316-.844.21-.242.451-.362.722-.362h1.873c.258 0 .488.12.691.362.204.24.306.522.306.844zm20.092 0v.804c0 .309-.105.57-.316.785-.21.215-.444.322-.702.322H7.369a.948.948 0 0 1-.734-.312c-.19-.208-.285-.473-.285-.795v-.805c0-.335.095-.62.285-.855A.901.901 0 0 1 7.37 6.4h15.613c.258 0 .492.12.702.362.21.241.316.523.316.845zm-20.092 6.48v.724c0 .336-.102.617-.306.846-.203.228-.434.342-.691.342H1.038c-.272 0-.512-.114-.722-.342S0 15.148 0 14.812v-.725c0-.348.105-.637.316-.865.21-.228.451-.342.722-.342h1.873c.258 0 .488.114.691.342.204.228.306.517.306.865zm20.092 0v.724a1.2 1.2 0 0 1-.316.846c-.21.228-.444.342-.702.342H7.369a.923.923 0 0 1-.734-.332c-.19-.22-.285-.506-.285-.855v-.725c0-.348.095-.637.285-.865a.91.91 0 0 1 .734-.342h15.613c.258 0 .492.117.702.352.21.234.316.52.316.855z"/></svg>