<svg xmlns="http://www.w3.org/2000/svg" width="23" height="23" aria-labelledby="gearTitleID gearDescID"><desc>A two-dimensional illustration of a gear</desc><g fill="#fff" fill-rule="evenodd"><path d="M11.026.21h.894c.016.003.033.009.05.01.204.012.41.02.614.035.435.035.869.086 1.294.189.35.084.6.366.648.722q.118.897.232 1.793c.007.056.03.078.079.096q.15.053.29.12c.054.026.09.022.137-.015q.69-.533 1.381-1.063c.355-.272.71-.288 1.083-.045.664.433 1.256.953 1.814 1.512.55.551 1.059 1.136 1.484 1.79.232.357.213.721-.047 1.06q-.538.7-1.077 1.398c-.03.04-.035.07-.014.117q.07.146.123.297c.02.056.05.079.107.085q.868.113 1.735.224c.417.052.693.295.785.705.115.519.17 1.045.198 1.575q.052.9-.015 1.8a9 9 0 0 1-.191 1.369.85.85 0 0 1-.733.663l-1.793.233c-.048.006-.071.025-.088.07a4 4 0 0 1-.125.304c-.025.051-.02.084.015.13q.534.69 1.064 1.38c.275.359.29.712.044 1.09-.421.642-.921 1.218-1.462 1.761-.562.565-1.16 1.09-1.83 1.526-.366.239-.727.221-1.072-.044q-.699-.539-1.4-1.075c-.022-.017-.064-.028-.088-.019a5 5 0 0 0-.352.144.1.1 0 0 0-.046.062q-.121.904-.238 1.807a.855.855 0 0 1-.655.732 9.5 9.5 0 0 1-1.55.205l-.534.03h-.63q-.095-.008-.189-.014a11 11 0 0 1-1.838-.207c-.39-.082-.66-.361-.71-.74q-.118-.904-.24-1.807a.1.1 0 0 0-.054-.07c-.104-.049-.212-.087-.316-.134-.048-.023-.081-.02-.124.014q-.696.538-1.393 1.072c-.345.266-.705.281-1.071.043-.665-.432-1.257-.951-1.816-1.51-.553-.555-1.065-1.144-1.492-1.803-.225-.346-.207-.714.044-1.041q.535-.698 1.072-1.393c.042-.053.048-.093.017-.154a3 3 0 0 1-.123-.297c-.015-.042-.038-.056-.079-.061q-.863-.112-1.728-.223c-.461-.059-.726-.3-.82-.755a11 11 0 0 1-.208-2.059q-.004-.116-.01-.233v-.029c.002-.022.007-.043.007-.065.013-.31.018-.62.038-.93a9 9 0 0 1 .19-1.383.85.85 0 0 1 .684-.654c.26-.04.522-.07.783-.104q.53-.07 1.06-.137c.047-.006.07-.026.087-.07q.056-.16.128-.31c.021-.047.017-.078-.014-.117L1.97 6.419c-.267-.346-.284-.707-.047-1.071.435-.669.957-1.265 1.52-1.826.554-.55 1.14-1.061 1.798-1.486.346-.224.714-.205 1.04.047q.704.54 1.407 1.079c.024.018.068.032.094.023q.18-.065.351-.144a.1.1 0 0 0 .048-.061q.12-.885.233-1.771c.054-.417.3-.691.71-.78.482-.106.971-.16 1.464-.191zm-.99 1.8q-.005.01-.006.02c-.074.559-.15 1.117-.22 1.677-.046.374-.236.636-.595.76q-.612.211-1.195.494c-.32.155-.631.12-.916-.095q-.48-.366-.958-.736l-.438-.336q-1.144.898-2.036 2.036l.049.066q.512.663 1.022 1.33c.21.276.255.581.106.895A13 13 0 0 0 4.33 9.37a.8.8 0 0 1-.68.552c-.563.081-1.128.15-1.692.22-.067.009-.086.036-.09.094-.024.411-.059.823-.072 1.235-.017.493.016.986.072 1.476.005.045.001.09.07.098.537.068 1.073.144 1.61.206.409.048.683.25.811.645.128.392.293.77.474 1.14.162.329.126.644-.096.934q-.47.614-.942 1.226l-.125.164a12 12 0 0 0 2.035 2.035l.074-.055q.661-.51 1.325-1.017c.271-.206.573-.254.882-.109q.622.294 1.269.526c.306.11.49.341.54.665.055.361.098.725.145 1.088l.09.687q.02.009.034.01c.15.016.3.035.451.047.779.057 1.556.049 2.333-.041.045-.006.066-.018.072-.068.07-.55.145-1.099.215-1.648.048-.378.242-.637.605-.76a9 9 0 0 0 1.16-.482q.505-.249.954.096l.994.763.385.295.02-.01a12 12 0 0 0 1.988-1.98c.035-.045.014-.068-.01-.1-.347-.45-.697-.9-1.04-1.353-.2-.265-.242-.563-.101-.863q.295-.63.531-1.283c.113-.312.355-.49.685-.536q.79-.108 1.582-.208c.172-.023.172-.023.196-.197l.007-.058a12 12 0 0 0 .043-1.844c-.013-.246-.04-.491-.06-.737-.004-.039-.008-.071-.065-.078q-.839-.107-1.676-.218c-.358-.047-.608-.238-.727-.576a11 11 0 0 0-.5-1.209c-.157-.32-.12-.63.095-.915q.266-.35.535-.698l.538-.699a12 12 0 0 0-2.036-2.036l-.066.05q-.664.512-1.33 1.02c-.267.204-.565.258-.868.117a17 17 0 0 0-1.304-.54.78.78 0 0 1-.52-.654c-.066-.436-.118-.875-.176-1.313l-.062-.466c-.617-.118-2.427-.116-2.877.002"/><path d="M11.474 17.032a5.443 5.443 0 0 1-5.437-5.438 5.44 5.44 0 0 1 5.441-5.434 5.44 5.44 0 0 1 5.43 5.437 5.444 5.444 0 0 1-5.434 5.435m-.002-9.167a3.735 3.735 0 0 0-3.728 3.722 3.73 3.73 0 0 0 7.458.012 3.735 3.735 0 0 0-3.73-3.734"/></g></svg>