<svg xmlns="http://www.w3.org/2000/svg" width="16" height="16" aria-labelledby="tocTitleID tocDescID" viewBox="0 0 24 16"><desc>An illustration of three text list items</desc><path fill="#fff" d="M3.908 1.168v.764q0 .483-.306.826-.305.342-.691.342H1.038q-.408 0-.722-.342A1.18 1.18 0 0 1 0 1.932v-.764Q0 .685.316.342.63 0 1.038 0h1.873q.387 0 .691.342.306.343.306.826m20.092 0v.764q0 .464-.316.816-.315.351-.702.352H7.369a.92.92 0 0 1-.734-.332q-.285-.331-.285-.835v-.765q0-.482.285-.825A.91.91 0 0 1 7.37.001h15.613q.387 0 .702.352.316.353.316.815zM3.908 7.608v.804q0 .463-.306.785-.305.322-.691.322H1.038a.98.98 0 0 1-.722-.322A1.08 1.08 0 0 1 0 8.412v-.805q0-.483.316-.844.315-.362.722-.362h1.873q.387 0 .691.362.306.36.306.844m20.092 0v.804q0 .463-.316.785-.315.322-.702.322H7.369a.95.95 0 0 1-.734-.312q-.285-.312-.285-.795v-.805q0-.502.285-.855A.9.9 0 0 1 7.37 6.4h15.613q.387 0 .702.362.316.362.316.845zm-20.092 6.48v.724q0 .503-.306.846-.305.342-.691.342H1.038q-.408 0-.722-.342c-.314-.342-.315-.51-.316-.846v-.725q0-.522.316-.865.315-.342.722-.342h1.873q.387 0 .691.342.306.342.306.865m20.092 0v.724a1.2 1.2 0 0 1-.316.846q-.315.342-.702.342H7.369a.92.92 0 0 1-.734-.332q-.285-.33-.285-.855v-.725q0-.523.285-.865a.91.91 0 0 1 .734-.342h15.613q.387 0 .702.352.316.352.316.855z"/></svg>