<svg xmlns="http://www.w3.org/2000/svg" width="19" height="19" aria-labelledby="searchButtonTitleID searchButtonDescID"><path fill="#fff" fill-rule="evenodd" d="m18.414 16.661-5.84-5.768a6.44 6.44 0 0 0 1.261-3.822c0-.073-.01-.144-.022-.213.012-.07.023-.142.023-.216 0-3.603-2.968-6.535-6.616-6.535-.065 0-.128.01-.19.019-.063-.009-.125-.019-.19-.019C3.192.107.224 3.04.224 6.642c0 .073.01.143.022.213-.013.07-.023.141-.023.216 0 3.603 2.968 6.534 6.617 6.534.064 0 .127-.01.19-.019.062.01.124.02.189.02a6.626 6.626 0 0 0 3.383-.93l5.924 5.85c.26.258.602.387.944.387.342 0 .684-.13.944-.387a1.307 1.307 0 0 0 0-1.865ZM7.03 10.987c-.063-.01-.125-.02-.19-.02-2.176 0-3.946-1.747-3.946-3.896 0-.073-.01-.143-.022-.213a1.27 1.27 0 0 0 .022-.216c0-2.149 1.77-3.897 3.946-3.897.065 0 .127-.01.19-.018.062.008.124.018.19.018 2.175 0 3.945 1.748 3.945 3.897 0 .073.01.143.022.213-.012.07-.023.142-.023.216 0 2.149-1.77 3.897-3.945 3.897-.065 0-.127.01-.19.019Z"/></svg>