<svg xmlns="http://www.w3.org/2000/svg" width="23" height="17" viewBox="0 0 23 17">
  <g fill="none" fill-rule="evenodd" stroke="#333" transform="translate(1 1)">
    <g stroke-linecap="round" transform="translate(2 2.522)">
      <path d="M8.5,9.97826087 L15.5,2.97826087" transform="rotate(180 12 6.478)"/>
      <path d="M15.5,11.2695652 L15.5,8.26956522" transform="rotate(90 15.5 9.77)"/>
      <path d="M16.1555266,5.77496471 L16.1480288,4.77499282" transform="rotate(-120 16.152 5.275)"/>
      <path d="M12.9236091,2.48093451 L12.9161756,1.48096213" transform="rotate(-150 12.92 1.98)"/>
      <path d="M8.5,3.47826087 L8.5,0.47826087" transform="rotate(180 8.5 1.978)"/>
      <path d="M4.07639089,2.48093451 L4.08382438,1.48096213" transform="rotate(150 4.08 1.98)"/>
      <path d="M0.844473378,5.77496471 L0.851971223,4.77499282" transform="rotate(120 .848 5.275)"/>
      <path d="M1.5,11.2695652 L1.5,8.26956522" transform="rotate(90 1.5 9.77)"/>
    </g>
    <path stroke-width="2" d="M10.5,14.9867607 C22.0227273,14.9867607 20.9752066,15.5091468 20.9752066,9.99117383 C20.9752066,4.47320089 16.2852969,0 10.5,0 C4.71470314,0 0.0247933884,4.47320089 0.0247933884,9.99117383 C0.0247933884,15.5091468 -1.02272727,14.9867607 10.5,14.9867607 Z"/>
  </g>
</svg>
