<svg xmlns="http://www.w3.org/2000/svg" width="23" height="23" aria-labelledby="infoTitleID infoDescID"><desc>A circle with a letter &quot;I&quot; in its center</desc><path fill="#fff" fill-rule="evenodd" d="M11.5 23C17.851 23 23 17.851 23 11.5S17.851 0 11.5 0 0 5.149 0 11.5 5.149 23 11.5 23m3.093-17.385c0 .392-.14.73-.422 1.011a1.38 1.38 0 0 1-1.01.423 1.38 1.38 0 0 1-1.012-.423 1.38 1.38 0 0 1-.422-1.01c0-.399.14-.737.422-1.016a1.387 1.387 0 0 1 1.011-.418c.392 0 .729.14 1.01.418.283.279.423.617.423 1.015m-1.543 9.06h.928c-.784 1.672-1.88 2.509-3.29 2.509-.57 0-.998-.12-1.286-.359-.288-.239-.432-.594-.432-1.066 0-.275.12-.76.358-1.451l1.103-3.17c.086-.245.129-.405.129-.478 0-.074-.017-.127-.05-.161-.035-.034-.088-.05-.162-.05-.312 0-.68.398-1.102 1.194h-.882c.79-1.71 1.905-2.564 3.344-2.564.509 0 .904.124 1.186.372.281.249.422.59.422 1.025 0 .319-.125.824-.376 1.516l-1.066 2.904c-.153.41-.23.667-.23.772 0 .067.02.119.06.156.04.036.096.055.17.055.159 0 .363-.138.61-.414.249-.275.437-.539.566-.79"/></svg>