<svg xmlns="http://www.w3.org/2000/svg" width="23" height="23" aria-labelledby="infoTitleID infoDescID"><desc>A circle with a letter &quot;I&quot; in its center</desc><path fill="#fff" fill-rule="evenodd" d="M11.5 23C17.851 23 23 17.851 23 11.5S17.851 0 11.5 0 0 5.149 0 11.5 5.149 23 11.5 23m3.093-17.385q0 .589-.422 1.011a1.38 1.38 0 0 1-1.01.423 1.38 1.38 0 0 1-1.012-.423 1.38 1.38 0 0 1-.422-1.01q0-.598.422-1.016a1.39 1.39 0 0 1 1.011-.418q.588 0 1.01.418.424.418.423 1.015m-1.543 9.06h.928q-1.176 2.509-3.29 2.509-.854 0-1.286-.359-.432-.358-.432-1.066 0-.414.358-1.451l1.103-3.17q.129-.368.129-.478t-.05-.161q-.052-.05-.162-.05-.468 0-1.102 1.194h-.882q1.185-2.565 3.344-2.564.763 0 1.186.372.422.373.422 1.025 0 .478-.376 1.516l-1.066 2.904q-.23.615-.23.772 0 .1.06.156.06.054.17.055.239 0 .61-.414.373-.413.566-.79"/></svg>