<svg height="1334" viewBox="0 0 3711 1334" width="3711" xmlns="http://www.w3.org/2000/svg" xmlns:xlink="http://www.w3.org/1999/xlink"><linearGradient id="a" x1="50%" x2="50%" y1="102.909058%" y2="0%"><stop offset="0" stop-color="#99671a"/><stop offset=".133764501" stop-color="#f9a72b"/><stop offset="1" stop-color="#f9a72b"/></linearGradient><g fill="none" fill-rule="evenodd"><rect fill="#42403c" height="1334" rx="100" width="3711"/><g fill-rule="nonzero"><g fill="#f9a72b" transform="translate(160 160)"><path d="m255.095123 541.010249c21.70536 0 44.150677-.741429 67.335948-2.224286 23.185272-1.482858 44.150677-5.684287 62.896216-12.604289 10.852681-3.954287 21.705361-9.762145 32.558041-17.423576 10.852681-7.66143 20.718754-16.929289 29.59822-27.803578 8.879465-10.874288 16.032368-23.478576 21.458708-37.812866 5.426341-14.334289 8.139511-30.398578 8.139511-48.192868 0-19.771433-4.069755-37.442152-12.209266-53.012155-8.13951-15.570004-18.99219-29.039293-32.558041-40.407867-13.56585-11.368574-28.981589-20.38929-46.247217-27.062149s-34.777908-10.99786-52.53684-12.975003v-2.965715c33.544649-6.920002 60.799676-20.389291 81.765081-40.407867s31.448108-46.339296 31.448108-78.962161c0-29.65715-8.13951-54.1242987-24.418531-73.4014461-16.27902-19.2771474-36.997774-33.6114365-62.15626-43.0028673-15.785717-5.9314299-32.188064-10.009288-49.20704-12.2335743-17.018976-2.2242862-34.901233-3.33642932-53.646772-3.33642932h-249.36499707v7.41428742c13.31919867 1.4828575 23.67857537 3.5835723 31.07813017 6.3021444 7.3995548 2.718572 14.7991096 8.0321447 22.1986644 15.940718 2.959822 2.965715 5.3030143 7.7850018 7.0295771 14.4578605 1.7265628 6.6728588 3.2064738 14.2107177 4.4397329 22.6135768s2.0965405 17.1764326 2.5898442 26.3207209c.4933036 9.144287.7399555 18.165004.7399555 27.062149 0 14.828575.1233259 27.927149.3699777 39.295723s.3699777 22.490006.3699777 33.364294v114.921455c0 14.828575-.1233259 29.286436-.3699777 43.373582s-.4933036 27.062149-.7399555 38.925009c-.2466518 11.86286-.3699777 21.254291-.3699777 28.174293 0 7.908573-.2466518 15.940718-.7399555 24.096434-.4933036 8.155716-1.356585 15.940718-2.5898442 23.355005-1.2332591 7.414288-2.5898442 13.963575-4.0697551 19.647862-1.479911 5.684287-3.4531256 10.009288-5.9196439 12.975003-6.9062511 7.908573-15.9090428 14.087146-27.008375 18.535719-11.0993322 4.448572-22.815294 7.66143-35.14788536 9.638573v7.414288zm-55.004667-278.484627h-41.455583v-71.280338c0-18.81009.123379-38.610184.370139-59.400283.246759-20.790098.616898-39.8476889 1.110417-57.1727712.493519-8.9100424.863658-16.0875765 1.110417-21.5326023.24676-5.4450259.493519-10.0237977.740279-13.7363153.246759-3.7125176.616898-6.8062823 1.110417-9.2812941.493519-2.4750117.987038-5.1975247 1.480557-8.1675388 4.441669-1.485007 10.857414-2.7225129 19.247235-3.7125176 8.38982-.9900047 17.766679-1.4850071 28.130574-1.4850071 34.54632 0 62.923654 4.9500235 85.132002 14.8500706 18.753717 8.4150399 34.42294 22.2751058 47.007671 41.5801975 12.58473 19.3050917 18.877096 41.3326963 18.877096 66.0828143 0 33.66016-11.474313 61.875294-34.42294 84.645402s-56.631288 35.392668-101.047985 37.86768c-6.909264.495002-16.039362.742503-27.390296.742503zm31.048505 268.111274c-16.769653 0-29.593506-1.856503-38.471557-5.569508-8.878052-3.713005-15.536591-8.292379-19.975616-13.73812-5.918702-7.921078-9.494583-17.946192-10.727646-30.075343s-2.096207-27.600007-2.589432-46.412567c0-8.416146-.123306-18.44126-.369919-30.075344-.19729-9.307266-.315664-19.32743-.355122-30.060491l-.014796-101.008598h71.76425c14.303528 0 26.757461.618835 37.361801 1.856503 10.604339 1.237668 21.331985 3.589239 32.182937 7.05471 13.317077 4.455607 25.524398 10.520182 36.621963 18.193726 11.097564 7.673545 20.715453 16.832291 28.853667 27.47624s14.550141 22.278032 19.235779 34.90225c4.685638 12.624219 7.028457 26.114805 7.028457 40.471759 0 25.248436-5.672088 46.907634-17.016265 64.977594-11.344177 18.069959-27.373993 32.55068-48.089446 43.442162-15.783203 8.416146-32.059631 13.614353-48.829284 15.594623-16.769653 1.980269-32.306244 2.970404-46.609771 2.970404zm590.441157 14.363104c38.074578 0 74.047638-6.673469 107.919178-20.020408 33.871541-13.346939 63.540043-32.378685 89.005504-57.095238 25.46547-24.716554 45.61533-53.882086 60.44958-87.496599 14.83425-33.614512 22.25137-70.195011 22.25137-109.741496 0-35.591837-6.18093-69.700681-18.54281-102.326531s-30.16298-61.420635-53.4033-86.3843539c-23.24033-24.9637188-51.549027-44.8605442-84.926093-59.6904761-33.377065-14.82993201-71.080787-22.244898-113.111166-22.244898-38.569053 0-75.283825 6.30272109-110.144316 18.9081633-34.860491 12.6054421-65.270706 30.648526-91.230646 54.1292517-25.959939 23.4807256-46.604272 52.151927-61.932999 86.013605-15.328726 33.861678-22.993089 72.048753-22.993089 114.561225 0 40.040816 7.293507 76.744898 21.88052 110.112245 14.587014 33.367347 34.489635 62.038549 59.707862 86.013605 25.218227 23.975057 54.639492 42.512472 88.263795 55.612245s69.226506 19.64966 106.80661 19.64966zm4.162348-11.171303c-31.116849 0-58.405831-7.164904-81.866948-21.494713-23.461116-14.329809-42.970886-33.353865-58.529311-57.072169-15.558424-23.718305-27.288982-51.142594-35.191674-82.272868s-11.854038-63.495876-11.854038-97.096807c0-32.118537 3.580907-63.866475 10.742722-95.243815 7.161814-31.37734 18.274975-59.419293 33.339481-84.1258601 15.064506-24.7065668 34.327317-44.8424187 57.788434-60.4075558 23.461116-15.5651371 51.244017-23.3477056 83.348702-23.3477056 31.610767 0 59.02323 7.7825685 82.237387 23.3477056s42.600448 35.8245219 58.158872 60.7781543c15.558425 24.9536326 27.165503 52.7485196 34.821236 83.3846626 7.655731 30.636143 11.483601 61.02522 11.483601 91.167232 0 31.130274-3.82787 62.260548-11.483601 93.390822-7.655733 31.130274-19.139332 59.172228-34.450797 84.12586s-34.450797 45.33655-57.417995 61.148753-50.009222 23.718304-81.126071 23.718304zm596.018264 11.171303c38.07458 0 74.04764-6.673469 107.91918-20.020408s63.54004-32.378685 89.00551-57.095238c25.46546-24.716554 45.61532-53.882086 60.44957-87.496599 14.83425-33.614512 22.25138-70.195011 22.25138-109.741496 0-35.591837-6.18094-69.700681-18.54282-102.326531-12.36187-32.62585-30.16297-61.420635-53.4033-86.3843539-23.24033-24.9637188-51.54902-44.8605442-84.92609-59.6904761-33.37707-14.82993201-71.08079-22.244898-113.11117-22.244898-38.56905 0-75.28382 6.30272109-110.14431 18.9081633-34.86049 12.6054421-65.27071 30.648526-91.23065 54.1292517-25.95994 23.4807256-46.60427 52.151927-61.933 86.013605-15.32872 33.861678-22.99309 72.048753-22.99309 114.561225 0 40.040816 7.29351 76.744898 21.88052 110.112245 14.58702 33.367347 34.48964 62.038549 59.70787 86.013605 25.21822 23.975057 54.63949 42.512472 88.26379 55.612245s69.22651 19.64966 106.80661 19.64966zm1.76801-11.171303c-31.11685 0-58.40583-7.164904-81.86695-21.494713-23.46111-14.329809-42.97088-33.353865-58.52931-57.072169-15.55842-23.718305-27.28898-51.142594-35.19167-82.272868s-11.85404-63.495876-11.85404-97.096807c0-32.118537 3.58091-63.866475 10.74272-95.243815 7.16182-31.37734 18.27498-59.419293 33.33948-84.1258601 15.06451-24.7065668 34.32732-44.8424187 57.78844-60.4075558 23.46111-15.5651371 51.24401-23.3477056 83.3487-23.3477056 31.61077 0 59.02323 7.7825685 82.23739 23.3477056 23.21415 15.5651371 42.60044 35.8245219 58.15887 60.7781543 15.55842 24.9536326 27.1655 52.7485196 34.82123 83.3846626 7.65574 30.636143 11.4836 61.02522 11.4836 91.167232 0 31.130274-3.82786 62.260548-11.4836 93.390822-7.65573 31.130274-19.13933 59.172228-34.45079 84.12586-15.31147 24.953632-34.4508 45.33655-57.418 61.148753s-50.00922 23.718304-81.12607 23.718304zm568.88448 7.181552v-7.414288c-4.95019-.494285-10.76665-1.359286-17.4494-2.595-6.68275-1.235715-13.48926-2.965715-20.41952-5.190001-6.93026-2.224287-13.3655-5.06643-19.30572-8.526431s-10.6429-7.66143-14.10803-12.604289c-4.95018-6.425715-8.16781-15.817146-9.65286-28.174292-1.48506-12.357146-2.47509-25.702863-2.97011-40.037152-.43314-14.272504-.67679-31.004851-.73093-50.197043l-.0116-81.777274c1.48506-3.954287 2.84636-6.79643 4.0839-8.526431 1.23755-1.73 3.8364-2.595 7.79655-2.595 3.46512 0 7.54903 1.73 12.2517 5.190001 4.70268 3.460001 13.48926 12.357146 26.35974 26.691435 30.69115 33.611436 60.26851 66.852158 88.73207 99.722166 28.46357 32.870008 58.53595 67.593588 90.21713 104.170739 2.97011 3.460001 5.69272 6.055001 8.16781 7.785002 2.47509 1.73 4.70267 3.089286 6.68275 4.077858h167.06876v-7.414288c-13.86052-.988571-26.35974-2.718572-37.49766-5.190001s-19.92449-4.942858-26.35974-7.414287c-1.48505-.494286-4.45516-2.471429-8.91033-5.93143l-3.4806-2.710849-7.79654-6.116787c-1.39224-1.096697-2.83089-2.23201-4.31594-3.405939-5.94023-4.695715-12.12796-10.009288-18.5632-15.940718s-12.12795-11.862859-17.07814-17.794289c-20.79078-23.231434-42.44784-47.45144-64.97118-72.660018-22.52334-25.208577-43.68539-48.934297-63.48613-71.177159s-36.87888-41.643581-51.23442-58.202157c-14.35554-16.558575-23.51338-27.309292-27.47353-32.25215 8.41532-8.897145 17.69692-18.412147 27.8448-28.545007 10.14788-10.132859 20.54327-20.636433 31.18616-31.510721 10.6429-10.874289 21.40956-21.748577 32.29996-32.622865 10.89041-10.874289 21.53331-21.007148 31.9287-30.398579 26.731-24.7142914 52.96698-46.4628679 78.70795-65.2457295 25.74096-18.7828616 51.23442-29.4100069 76.48036-31.8814361v-7.41428742h-198.99745v7.41428742c12.87048 1.9771434 24.25591 6.1785729 34.15628 12.6042887s14.85055 16.8057182 14.85055 31.1400073c0 8.4028592-3.34137 17.7942899-10.02412 28.1742924-6.68275 10.3800024-14.23178 20.5128622-22.6471 30.3985782-11.88044 12.851432-25.98847 27.92715-42.32408 45.227154-16.33562 17.300004-32.79498 34.105722-49.3781 50.417155-16.58312 16.311432-32.42372 31.016435-47.52178 44.11501-15.09807 13.098574-27.10227 22.366434-36.0126 27.803578v-114.921456c0-12.851431.12375-24.220005.37126-34.105722s.61878-20.512862 1.11379-31.881436c.49502-20.760005 3.09387-36.8242944 7.79655-48.1928686 4.70267-11.3685741 10.51914-19.8950046 17.4494-25.5792917 6.93026-5.684287 14.85056-9.3914308 23.76089-11.1214312s18.06818-3.0892864 27.47353-4.0778581v-7.41428742h-230.18362v7.41428742c12.87048 1.4828575 24.25591 4.2014296 34.15628 8.1557162 9.90037 3.9542867 18.31568 10.1328596 25.24594 18.5357187 5.44521 6.9200016 8.78658 18.2885757 10.02413 34.1057223 1.23754 15.8171466 1.85632 33.1171504 1.85632 51.9000124v231.325768c0 13.840004-.12376 26.691435-.37127 38.554295s-.37126 21.254291-.37126 28.174293c0 7.908573-.12376 16.187861-.37126 24.837863-.24751 8.650002-.74253 16.805718-1.48506 24.467148-.74253 7.661431-1.85632 14.457861-3.34138 20.389291-1.48505 5.93143-3.46513 10.380002-5.94022 13.345717-5.94022 6.920002-14.60304 12.357146-25.98847 16.311432-11.38543 3.954287-23.26587 6.920002-35.64134 8.897145v7.414288z"/><path d="m183.703704 1013v-5.74202c-15.691358-.76561-27.938272-3.73232-36.740741-8.900144-8.802469-5.167822-14.734568-10.239944-17.796296-15.216366-3.827161-5.742025-5.932099-13.015256-6.314815-21.819695-.382716-8.804438-.765432-19.331484-1.148148-31.581137-.334877-11.053398-.523245-24.304915-.565104-39.754551l-.00897-71.640733c5.358024.382801 9.759259.574202 13.203703.574202 3.827161 0 9.376544.765604 16.648148 2.29681 9.950618 1.914008 19.42284 6.699029 28.416667 14.355063 8.993827 7.656033 17.317901 15.886269 24.972222 24.690707 9.185186 10.718447 17.126544 20.384189 23.824074 28.997226 6.697531 8.613037 12.916667 17.130374 18.657408 25.552011s11.385802 16.938974 16.935185 25.552011c5.549383 8.613038 11.959877 18.27878 19.231482 28.997226 6.123456 8.804439 10.62037 15.407767 13.49074 19.809986 2.870371 4.40222 5.262346 7.751734 7.175926 10.048544s3.635803 4.30652 5.166667 6.02913c1.530864 1.7226 4.018518 4.30652 7.462963 7.75173h117.685185v-5.74202c-17.987654-2.67962-33.679012-8.613042-47.074074-17.800282s-27.17284-23.733704-41.333333-43.63939c-9.185186-13.015257-19.614198-27.944522-31.287037-44.787795-11.67284-16.843273-22.484568-32.538141-32.435186-47.084605-5.74074-8.038834-11.672839-15.312066-17.796296-21.819694-6.123457-6.507629-12.438272-11.48405-18.944444-14.929265v-1.722608c12.629629-4.210818 24.685185-9.378641 36.166666-15.503467 11.481482-6.124827 21.527778-13.493759 30.138889-22.106796 8.611111-8.613038 15.5-18.565881 20.666667-29.85853s7.75-24.020805 7.75-38.184466c0-22.9681-5.166667-42.012483-15.5-57.133149-10.333333-15.120665-23.919753-27.083217-40.759259-35.887656-16.456791-8.804438-34.635803-13.97226-54.537037-15.503467-19.901235-1.531207-42.67284-2.29681-68.314815-2.29681h-40.185185c-16.456791 0-32.9135807.0957-49.3703708.287101-13.7139918.159501-26.2319959.252543-37.5540124.279126l-30.18672836.007975v5.742025c10.33333336 1.531207 19.04012346 3.349515 26.12037036 5.454924s13.4907408 6.220527 19.2314815 12.345354c2.2962963 2.29681 4.1141975 6.029126 5.4537037 11.196949 1.3395062 5.167822 2.2962963 10.909847 2.8703704 17.226074.574074 6.316228.9567901 13.015257 1.1481481 20.097088s.2870371 14.067961.2870371 20.958391v145.273232c0 11.484049-.0956791 22.680998-.2870371 33.590846-.191358 10.909847-.382716 20.958391-.5740741 30.145631-.191358 9.18724-.287037 16.460471-.287037 21.819695 0 6.124826-.191358 12.441054-.5740741 18.948682-.382716 6.507628-.8611111 12.632455-1.4351852 18.37448-.574074 5.742025-1.4351851 10.909847-2.5833333 15.503467-1.1481481 4.59362-2.6790123 8.038835-4.5925926 10.335645-4.9753086 6.124827-11.8641975 10.718447-20.6666666 13.780865-8.8024692 3.06241-17.98765437 5.35922-27.5555556 6.89043v5.74202zm-63.703704-201v-63.079096c0-15.6742.095238-31.921846.285714-48.742938s.476191-31.921845.857143-45.30226c.380953-8.792843.666667-15.578625.857143-20.357344.190476-4.77872.380952-8.506121.571429-11.182204.190476-2.676083.47619-4.874294.857142-6.594633.380953-1.720339.761905-3.727401 1.142858-6.021186 2.666666-.382298 6.47619-.764595 11.428571-1.146893 4.952381-.382297 11.428571-.573446 19.428571-.573446 11.047619 0 21.619048.955744 31.714286 2.867232 10.095238 1.911487 19.714286 4.969868 28.857143 9.175141 18.285714 8.792844 32.190476 20.644068 41.714286 35.553672 9.523809 14.909605 14.285714 31.921846 14.285714 51.036723 0 10.322034-1.333333 20.261771-4 29.819209-2.666667 9.557439-6.761905 18.445857-12.285714 26.665255-5.52381 8.219397-12.666667 15.578625-21.428572 22.077683-8.761904 6.499059-19.238095 11.660076-31.428571 15.483051-12.571429 4.205273-25.619048 6.97693-39.142857 8.314972-13.52381 1.338041-28.095238 2.007062-43.714286 2.007062zm667.299094 201 28.700906-109.294444-6.314199-1.716667c-9.566969 16.403704-18.846929 30.423148-27.83988 42.058333-8.99295 11.635185-18.27291 21.458334-27.839879 29.469445-9.566968 8.011111-19.516616 14.210185-29.848942 18.597222-10.332327 4.387037-21.62135 7.343518-33.86707 8.869441-11.097684 1.52593-21.717019 2.47963-31.858006 2.86111-10.140987.38149-18.46425.57223-24.969788.57223-15.30715 0-29.466264-1.14445-42.477342-3.43334-13.011077-2.288886-21.23867-6.1037-24.682779-11.444441s-5.644512-13.447222-6.601209-24.319445c-.956697-10.872222-1.626384-22.412037-2.009063-34.619444 0-3.814815-.09567-8.487963-.287009-14.019444-.19134-5.531482-.287009-11.349075-.287009-17.452778v-68.666667c0-10.3.382679-18.12037 1.148036-23.461111h26.404834c3.826787 0 7.653575.09537 11.480362.286111 3.826788.190741 8.610272.476852 14.350454.858333 11.480362.762963 21.525679 2.861112 30.135951 6.294445s15.976838 7.82037 22.099698 13.161111c6.888218 6.485185 13.489426 16.212963 19.803625 29.183333 6.3142 12.970371 11.002015 25.55926 14.063445 37.766667h6.888217v-180.25h-6.888217c-2.296073 10.681481-4.879154 20.313889-7.749245 28.897222-2.870091 8.583334-6.696878 16.117593-11.480363 22.602778-4.783484 6.485185-11.002014 12.016667-18.655589 16.594444-7.653575 4.577778-17.220544 8.201852-28.700906 10.872223-4.974824 1.144444-11.193354 2.002777-18.655589 2.575-7.462236.572222-14.924472 1.049074-22.386707 1.430555-7.462236.381482-14.063444.572222-19.803626.572222h-11.480362v-6.294444c0-3.433333-.09567-8.297222-.287009-14.591667-.15945-5.24537-.252462-11.749099-.279037-19.511188l-.007972-41.430478c0-25.177778.287009-47.303704.861027-66.377778s1.243706-31.662963 2.009063-37.766667c3.826788-.762963 10.045318-1.430555 18.65559-2.002778 8.610271-.572222 16.933534-.858333 24.969788-.858333 25.256798 0 46.686808 1.144445 64.29003 3.433333 17.603223 2.288889 29.657603 4.95926 36.163142 8.011112 27.170192 13.351851 56.253777 39.292592 87.250756 77.822222l5.740181-2.861111-39.033233-94.416667h-316.858006v5.722222c10.332326 1.525926 18.751259 3.147222 25.256798 4.863889 6.505538 1.716667 12.628399 5.626852 18.36858 11.730556 2.296072 2.288889 4.113796 6.008333 5.453172 11.158333s2.296072 10.967593 2.870091 17.452778c.574018 6.485185.956697 13.351852 1.148036 20.6s.287009 14.305555.287009 21.172222v144.772222c0 11.444445-.09567 22.602778-.287009 33.475s-.382679 20.886111-.574018 30.041667c-.19134 9.155555-.287009 16.403704-.287009 21.744444 0 6.103704-.19134 12.302778-.574018 18.597223-.382679 6.294444-1.052367 12.302777-2.009064 18.025-.956697 5.722222-2.009063 10.776851-3.1571 15.163888-1.148036 4.387037-2.678751 7.725-4.592145 10.013889-5.357502 6.103704-12.15005 10.872223-20.377643 14.305556-8.227593 3.433331-17.124874 5.912961-26.691843 7.438891v5.72222zm136.0095 1v-5.73569c-4.976563-.76476-10.240235-1.62512-15.791016-2.58107s-10.71875-2.48547-15.503906-4.58855c-4.785156-2.103091-8.708984-4.779749-11.771484-8.029976s-4.59375-7.360808-4.59375-12.331744c0-8.412352 4.019531-22.942779 12.058593-43.591281 5.359375-13.383288 10.71875-26.670981 16.078125-39.863079s10.910157-27.05336 16.652344-41.583787h152.74219c5.74219 14.912806 11.10156 29.252043 16.07812 43.017711s9.37891 26.288601 13.20703 37.568801c3.82813 11.2802 6.79493 20.839691 8.90039 28.678474 2.10547 7.838783 3.15821 13.478883 3.15821 16.9203 0 5.353315-1.81836 9.750681-5.45508 13.192098s-7.84766 6.118073-12.63281 8.029973c-4.78516 1.9119-9.37891 3.25023-13.78125 4.01499-4.40235.76476-7.17774 1.14714-8.32618 1.14714v5.73569h167.67188v-6.88283c-8.80469-.38238-16.46094-2.10309-22.96875-5.16213-6.50781-3.059036-11.96289-6.596048-16.36523-10.611035-4.40235-4.014986-7.94336-7.934377-10.62305-11.758174-2.67969-3.823796-4.40235-6.500454-5.16797-8.029973-4.59375-9.941871-8.70898-18.832198-12.3457-26.670981s-7.56055-17.685059-11.77149-29.538828c-9.1875-24.089918-18.375-48.466621-27.5625-73.130109s-18.66211-50.18733-28.42383-76.571526c-9.76171-26.384196-20.00195-53.819936-30.7207-82.307221-1.78646-4.74788-3.58887-9.540903-5.40723-14.379068l-11.10156-29.570693c-5.64648-15.056199-11.43652-30.518676-17.37012-46.387432h-4.59375c-1.53125 2.676658-3.73242 6.118074-6.60351 10.324251-2.87109 4.206176-6.41211 8.603542-10.62305 13.192098-4.21093 4.588556-9.09179 8.985922-14.64258 13.192098-5.55078 4.206176-11.77148 7.838783-18.662105 10.89782l5.742187 12.618529c-9.187499 21.41326-18.949218 44.451635-29.285156 69.115122-10.335937 24.663488-20.767578 49.135786-31.294922 73.416894-10.527343 24.281108-20.767578 47.893052-30.720703 70.835831s-18.949218 43.400091-26.988281 61.371935c-8.804687 19.501362-16.269531 34.222979-22.394531 44.16485s-10.527344 16.251135-13.207031 18.927793c-1.148438 1.529518-5.263672 4.397366-12.345704 8.603542-7.082031 4.206177-15.599609 6.882837-25.552734 8.029977v6.30926zm145.691406-171h-142c9.124498-22.530744 17.583668-43.438511 25.37751-62.723301s14.922356-36.564725 21.385542-51.839806 11.880857-28.258899 16.253012-38.951456c4.372156-10.692557 7.698795-18.521036 9.97992-23.485437 3.421686 8.401294 7.698796 19.18932 12.831326 32.364078 5.13253 13.174757 10.83534 27.686084 17.10843 43.53398 6.2731 15.847897 12.73628 32.364078 19.38956 49.548544s13.21151 34.368932 19.6747 51.553398zm387.90525 170c17.55186 0 35.67606-1.24411 54.3726-3.73232s36.82074-6.79473 54.3726-12.919552c17.55185-6.124827 34.14981-14.355063 49.79385-24.690708 15.64405-10.335645 29.38028-23.350901 41.20871-39.04577 11.82842-15.694868 21.1767-34.452149 28.04481-56.271844 6.86812-21.819695 10.30218-47.084605 10.30218-75.79473 0-24.882108-3.14789-46.988904-9.44366-66.320388-6.29578-19.331484-14.69014-36.366158-25.1831-51.104022s-22.79834-27.46602-36.91613-38.184466c-14.1178-10.718447-29.1895-19.522885-45.21511-26.413315-12.20999-5.359223-24.61076-9.378641-37.20231-12.058253-12.59155-2.679611-25.1831-4.59362-37.77465-5.742025-12.59154-1.148405-25.18309-1.722607-37.77464-1.722607h-36.62996-9.75016l-18.82975.015289c-30.63786.033977-57.5504.124581-80.73764.271812-23.6841.150387-43.01042.241693-57.97894.273918l-11.27458.013183v5.742025c9.92062 1.148405 18.88733 3.062414 26.90013 5.742025 8.0128 2.679612 14.88092 7.464633 20.60435 14.355063 2.28938 2.679611 4.00641 6.411928 5.15109 11.196949 1.14469 4.78502 2.0032 10.144244 2.57555 16.077669.57234 5.933426.85851 12.345354.85851 19.235784v165.944522c0 11.484049-.09539 22.680998-.28617 33.590846-.19078 10.909847-.38156 20.958391-.57234 30.145631s-.28618 16.460471-.28618 21.819695c0 6.124826-.19078 12.441054-.57234 18.948682s-.9539 12.632455-1.71703 18.37448c-.76312 5.742025-1.62164 10.909847-2.57554 15.503467-.95391 4.59362-2.38476 7.847434-4.29258 9.761443-4.57874 5.359223-11.35147 9.952843-20.31818 13.78086s-18.21959 6.316227-27.75864 7.464637v5.74202zm-12.88564-9c-10.30901 0-21.2862-1.04952-32.93156-3.14855-11.64536-2.099035-21.28619-6.964977-28.9225-14.597827-2.29089-2.289855-4.29542-5.820048-6.01359-10.59058-1.71816-4.770531-2.95906-10.113526-3.72269-16.028985s-1.43181-12.021739-2.00453-18.318841c-.57273-6.297101-.85909-12.117149-.85909-17.460145-.33939-11.194847-.52794-25.254368-.56565-42.178565l.00648-93.972965c.04971-36.788984.2361-69.069391.55917-96.841223.38182-32.821256 1.52726-58.582126 3.43634-77.282609 2.6727-.763285 6.2045-1.335749 10.59537-1.717391 4.39087-.381643 9.16356-.858696 14.31807-1.43116 5.1545-.572463 10.40446-.954106 15.74987-1.144927 5.34542-.190821 10.30901-.286232 14.8908-.286232 13.36353 0 24.62707.477053 33.79064 1.431159 9.16356.954107 17.5635 2.194445 25.1998 3.721015 19.85439 3.434783 38.18152 11.067633 54.98138 22.898551 16.79987 11.830918 31.30885 26.237922 43.52693 43.221014 12.21809 16.983092 21.76347 35.969807 28.63614 56.960145s10.30901 42.55314 10.30901 64.688406c0 49.995169-10.21356 92.071256-30.64067 126.228261s-51.25868 57.150966-92.49472 68.981884c-8.78175 2.671497-18.23168 4.484295-28.34978 5.438405s-19.94984 1.43116-29.49522 1.43116zm643.27948 9 28.70091-109.294444-6.3142-1.716667c-9.56697 16.403704-18.84693 30.423148-27.83988 42.058333s-18.27291 21.458334-27.83988 29.469445-19.51661 14.210185-29.84894 18.597222-21.62135 7.343518-33.86707 8.869441c-11.09768 1.52593-21.71702 2.47963-31.85801 2.86111-10.14098.38149-18.46425.57223-24.96978.57223-15.30715 0-29.46627-1.14445-42.47735-3.43334-13.01107-2.288886-21.23867-6.1037-24.68278-11.444441-3.4441-5.340741-5.64451-13.447222-6.6012-24.319445-.9567-10.872222-1.62639-22.412037-2.00907-34.619444 0-3.814815-.09567-8.487963-.28701-14.019444-.19134-5.531482-.28701-11.349075-.28701-17.452778v-68.666667c0-10.3.38268-18.12037 1.14804-23.461111h26.40483c3.82679 0 7.65358.09537 11.48037.286111 3.82678.190741 8.61027.476852 14.35045.858333 11.48036.762963 21.52568 2.861112 30.13595 6.294445s15.97684 7.82037 22.0997 13.161111c6.88822 6.485185 13.48943 16.212963 19.80363 29.183333 6.31419 12.970371 11.00201 25.55926 14.06344 37.766667h6.88822v-180.25h-6.88822c-2.29607 10.681481-4.87915 20.313889-7.74925 28.897222-2.87009 8.583334-6.69687 16.117593-11.48036 22.602778-4.78348 6.485185-11.00201 12.016667-18.65559 16.594444-7.65357 4.577778-17.22054 8.201852-28.7009 10.872223-4.97483 1.144444-11.19336 2.002777-18.65559 2.575-7.46224.572222-14.92447 1.049074-22.38671 1.430555-7.46223.381482-14.06344.572222-19.80362.572222h-11.48037v-6.294444c0-3.433333-.09567-8.297222-.28701-14.591667-.15945-5.24537-.25246-11.749099-.27903-19.511188l-.00798-41.430478c0-25.177778.28701-47.303704.86103-66.377778s1.24371-31.662963 2.00907-37.766667c3.82678-.762963 10.04531-1.430555 18.65558-2.002778 8.61028-.572222 16.93354-.858333 24.96979-.858333 25.2568 0 46.68681 1.144445 64.29003 3.433333 17.60323 2.288889 29.65761 4.95926 36.16315 8.011112 27.17019 13.351851 56.25377 39.292592 87.25075 77.822222l5.74018-2.861111-39.03323-94.416667h-316.85801v5.722222c10.33233 1.525926 18.75126 3.147222 25.2568 4.863889s12.6284 5.626852 18.36858 11.730556c2.29607 2.288889 4.1138 6.008333 5.45317 11.158333 1.33938 5.15 2.29608 10.967593 2.87009 17.452778.57402 6.485185.9567 13.351852 1.14804 20.6s.28701 14.305555.28701 21.172222v144.772222c0 11.444445-.09567 22.602778-.28701 33.475s-.38268 20.886111-.57402 30.041667c-.19134 9.155555-.28701 16.403704-.28701 21.744444 0 6.103704-.19134 12.302778-.57402 18.597223-.38267 6.294444-1.05236 12.302777-2.00906 18.025-.9567 5.722222-2.00906 10.776851-3.1571 15.163888-1.14803 4.387037-2.67875 7.725-4.59214 10.013889-5.35751 6.103704-12.15005 10.872223-20.37765 14.305556-8.22759 3.433331-17.12487 5.912961-26.69184 7.438891v5.72222zm240.40461 0v-5.74202c-15.69135-.76561-27.93827-3.73232-36.74074-8.900144-8.80247-5.167822-14.73456-10.239944-17.79629-15.216366-3.82716-5.742025-5.9321-13.015256-6.31482-21.819695-.38271-8.804438-.76543-19.331484-1.14815-31.581137-.33487-11.053398-.52324-24.304915-.5651-39.754551l-.00897-71.640733c5.35802.382801 9.75926.574202 13.2037.574202 3.82716 0 9.37655.765604 16.64815 2.29681 9.95062 1.914008 19.42284 6.699029 28.41667 14.355063 8.99383 7.656033 17.3179 15.886269 24.97222 24.690707 9.18519 10.718447 17.12654 20.384189 23.82407 28.997226 6.69754 8.613037 12.91667 17.130374 18.65741 25.552011s11.3858 16.938974 16.93519 25.552011c5.54938 8.613038 11.95987 18.27878 19.23148 28.997226 6.12346 8.804439 10.62037 15.407767 13.49074 19.809986 2.87037 4.40222 5.26234 7.751734 7.17593 10.048544 1.91358 2.29681 3.6358 4.30652 5.16666 6.02913 1.53087 1.7226 4.01852 4.30652 7.46296 7.75173h117.68519v-5.74202c-17.98765-2.67962-33.67901-8.613042-47.07407-17.800282-13.39507-9.18724-27.17284-23.733704-41.33334-43.63939-9.18518-13.015257-19.61419-27.944522-31.28703-44.787795s-22.48457-32.538141-32.43519-47.084605c-5.74074-8.038834-11.67284-15.312066-17.7963-21.819694-6.12345-6.507629-12.43827-11.48405-18.94444-14.929265v-1.722608c12.62963-4.210818 24.68518-9.378641 36.16667-15.503467 11.48148-6.124827 21.52777-13.493759 30.13889-22.106796 8.61111-8.613038 15.5-18.565881 20.66666-29.85853 5.16667-11.292649 7.75-24.020805 7.75-38.184466 0-22.9681-5.16666-42.012483-15.5-57.133149-10.33333-15.120665-23.91975-27.083217-40.75926-35.887656-16.45679-8.804438-34.6358-13.97226-54.53703-15.503467-19.90124-1.531207-42.67284-2.29681-68.31482-2.29681h-40.18518c-16.45679 0-32.91358.0957-49.37037.287101-13.714.159501-26.232.252543-37.55402.279126l-30.18673.007975v5.742025c10.33334 1.531207 19.04013 3.349515 26.12037 5.454924 7.08025 2.105409 13.49075 6.220527 19.23149 12.345354 2.29629 2.29681 4.11419 6.029126 5.4537 11.196949 1.33951 5.167822 2.2963 10.909847 2.87037 17.226074.57407 6.316228.95679 13.015257 1.14815 20.097088s.28704 14.067961.28704 20.958391v145.273232c0 11.484049-.09568 22.680998-.28704 33.590846-.19136 10.909847-.38272 20.958391-.57408 30.145631-.19135 9.18724-.28703 16.460471-.28703 21.819695 0 6.124826-.19136 12.441054-.57408 18.948682-.38271 6.507628-.86111 12.632455-1.43518 18.37448-.57408 5.742025-1.43519 10.909847-2.58334 15.503467-1.14814 4.59362-2.67901 8.038835-4.59259 10.335645-4.97531 6.124827-11.8642 10.718447-20.66666 13.780865-8.80247 3.06241-17.98766 5.35922-27.55556 6.89043v5.74202zm-62.7037-201v-63.079096c0-15.6742.09524-31.921846.28571-48.742938.19048-16.821092.47619-31.921845.85715-45.30226.38095-8.792843.66666-15.578625.85714-20.357344.19048-4.77872.38095-8.506121.57143-11.182204.19047-2.676083.47619-4.874294.85714-6.594633s.76191-3.727401 1.14286-6.021186c2.66667-.382298 6.47619-.764595 11.42857-1.146893 4.95238-.382297 11.42857-.573446 19.42857-.573446 11.04762 0 21.61905.955744 31.71429 2.867232 10.09524 1.911487 19.71428 4.969868 28.85714 9.175141 18.28571 8.792844 32.19048 20.644068 41.71429 35.553672 9.52381 14.909605 14.28571 31.921846 14.28571 51.036723 0 10.322034-1.33333 20.261771-4 29.819209-2.66667 9.557439-6.7619 18.445857-12.28571 26.665255-5.52381 8.219397-12.66667 15.578625-21.42858 22.077683-8.7619 6.499059-19.23809 11.660076-31.42857 15.483051-12.57143 4.205273-25.61904 6.97693-39.14285 8.314972-13.52381 1.338041-28.09524 2.007062-43.71429 2.007062z"/></g><g transform="translate(2550.645509 61.02992)"><path d="m439.536913 1178.97008-387.1824223-1147.0000001 37.3508572 3.8297161c139.3203811 133.406849 243.4582861 318.821612 312.4137141 556.244287 36.946245 127.210816 66.618858 283.702206 89.017839 469.474167-8.412276-130.572439-34.441971-285.820311-81.167018-465.705147-60.937264-234.599858-168.600551-414.632579-261.786645-549.7633734l-2.828747-4.0796497 13.472266 1.774823c95.194454 136.5403631 202.537709 311.3449471 264.371833 549.3975911 45.163486 173.87304 71.173747 327.166262 80.669087 456.622196-3.769438-128.112591-21.951233-279.491896-68.657181-453.92829-62.788614-234.501596-136.924113-409.714184-232.941317-544.7883792l-2.914688-4.0779409 13.729664 1.7740797c98.086581 136.4831734 171.892325 306.4698144 235.605047 544.4227504 62.725543 234.266042 73.95565 427.32942 68.420874 578.83211l-.255585.97106c50.575336-194.341722 111.158003-387.983721 181.748-580.925997s150.080282-378.995324 238.470857-558.159145l16.281143-1.9148581-401.096485 1147.0000001z" fill="url(#a)"/><path d="m531.857491 1171.47008h-73.546l-405.1030003-1152.9170001.0369844.1120947c-5.4246387-17.0477478-22.0202057-21.6074027-47.46106632-14.69112316l-5.78440878 1.61114412 1.595442 4.95145484c19.71366 61.1813512 40.214342 123.4812046 61.3498284 186.5360836l5.2970087 15.779239 5.3229302 15.809436c.8892858 2.637352 1.7796297 5.27591 2.6710206 7.915648l5.3608218 15.852366 5.385422 15.879408c1.7991821 5.297502 3.602376 10.599302 5.4094939 15.905188l5.4330371 15.929706c12.7041423 37.196937 25.5962383 74.583797 38.6460743 112.088432l5.602356 16.080415 5.621142 16.093575c.938393 2.683289 1.877547 5.367073 2.817451 8.051327l5.648331 16.110948 5.665796 16.120951c.945726 2.687589 1.892157 5.375542 2.839283 8.063833l5.691002 16.133591c.949861 2.689538 1.900394 5.379361 2.851589 8.069443l5.71502 16.143391c2.861392 8.07304 5.728541 16.147939 8.601149 24.223985l5.752406 16.153415c.959919 2.692421 1.920422 5.384917 2.881498 8.077462l5.773253 16.155642 5.78649 16.15555 5.799198 16.154195 5.811378 16.151579 5.82303 16.147701c.971446 2.69089 1.943356 5.381565 2.915718 8.072001l5.839516 16.139516c.974128 2.689368 1.948686 5.378443 2.923664 8.067199l5.854812 16.128492c.976611 2.687373 1.95362 5.374374 2.931015 8.060977l5.868919 16.114628c.978897 2.684905 1.958158 5.369359 2.937772 8.053335l5.881838 16.097925c.980984 2.681963 1.962298 5.363397 2.943934 8.044274l5.893566 16.078382 5.900726 16.063775 4.960279 13.476922 5.727096 15.52574 5.728915 15.49381 3.815822 10.300058 5.711852 15.389253 5.689557 15.295716 5.658219 15.179078 3.75027 10.043176 5.585894 14.933341 5.53044 14.755097 5.465945 14.553749 7.171971 19.051864 5.280288 13.994099 5.185649 13.715743 5.081967 13.41429 4.969243 13.08973 6.434678 16.90818 4.671051 12.24258 4.528184 11.84103 2.934952 7.65951 4.269975 11.12041 4.102993 10.65724 3.926967 10.17096 3.741898 9.66159 2.387318 6.14666 4.505103 11.55598 2.112426 5.39563 2.015437 5.13158 1.915768 4.86071 2.680913 6.76818 1.654874 4.15355 1.545828 3.85871 1.434101 3.55703c.229558.56732.454349 1.12178.674317 1.66325l1.261489 3.09166c.200454.4889.395973.96452.586502 1.42672l1.082848 2.6109.960404 2.28184c.449145 1.05751.851368 1.98905 1.205163 2.79078l.231964.52007-.028685.07597c-6.278907 16.8226-1.348012 27.46252 14.470482 27.36741l.430203-.00638 117.269832-.00038c7.772146.1695 13.389878-2.69988 15.518469-8.81364l.107422-.32105c1.521882-4.73788.68542-10.76232-2.198723-18.29493l.302792-.66497c.507249-1.12424 1.106357-2.48397 1.793399-4.06957l1.096024-2.54661 1.224982-2.8782 1.350998-3.20257 1.474071-3.51974 1.594201-3.82969 1.711387-4.13242 1.825631-4.42794 1.936931-4.71626 3.107647-7.59917 2.202307-5.40545 3.491915-8.59916 3.709232-9.16669 2.588648-6.4144 2.677876-6.64859 4.177679-10.39624 4.361886-10.8826 4.536161-11.34463 4.700504-11.78229 4.854914-12.19562 6.696244-16.86169 5.176576-13.06535 7.089075-17.93295 5.44416-13.802526 7.409801-18.827475 5.657666-14.407129 5.732614-14.625665 7.742903-19.79875 5.868866-15.040897 5.910704-15.178273 5.94261-15.2913 7.955945-20.522138 5.978431-15.460344 5.977227-15.49221 5.966092-15.499728 3.093278-8.050087 6.180629-16.109609 6.17229-16.121196c2.055982-5.375532 4.110486-10.752796 6.163426-16.131596l6.154036-16.140804c1.024861-2.690835 2.049309-5.382005 3.073332-8.073483l6.138966-16.152386 6.128261-16.15862c2.040911-5.387114 4.07995-10.775068 6.117031-16.163665l6.105275-16.167518 6.092994-16.170183c1.014446-2.695186 2.028359-5.390434 3.041727-8.085718l6.073587-16.171948c1.011146-2.695332 2.021725-5.390651 3.031727-8.085932l6.052996-16.171037 6.038612-16.168941c1.005207-2.694583 2.009793-5.389029 3.013747-8.083313l6.01605-16.163567c5.006907-13.467693 9.997461-26.930104 14.970294-40.384135l5.958806-16.140617c6.941811-18.825565 13.847816-37.632276 20.714256-56.41163l5.875743-16.089692 5.85584-16.075103c2.922856-8.033705 5.838051-16.061494 8.745289-24.082697l5.80378-16.033424 5.782036-16.014672c2.885495-8.002449 5.762638-15.997419 8.631135-23.984241l5.725376-15.962581c3.809115-10.634214 7.602507-21.25315 11.379476-31.85522l5.653048-15.890258c16.921666-47.631637 33.50366-94.905689 49.68211-141.677587l5.377784-15.571836c6.256439-18.1449814 12.450774-36.2115902 18.579251-54.1913238l5.236763-15.3897264c2.61023-7.6840271 5.208165-15.3516513 7.793509-23.0022034l4.1688-12.3513343-4.6959-1.6187227c-24.957377-8.60304292-42.091201-4.08413714-48.955074 14.2183266z" fill="#f9a72b"/><path d="m993.433483 12.0043714.554008.1567085-3.538421 10.4673322c-10.368933 30.6300161-20.937767 61.529904-31.687571 92.6568019l-5.389895 15.582169c-17.115203 49.402182-34.676177 99.355558-52.607779 149.689998l-5.674844 15.907555-5.698957 15.931699c-.951807 2.657229-1.904596 5.315414-2.858358 7.974531l-5.734143 15.965681c-2.872815 7.988231-5.75418 15.9844-8.643799 23.987837l-5.790156 16.016366-5.81164 16.034556c-4.85184 13.369378-9.725512 26.756465-14.619647 40.15816l-5.882696 16.088846-5.901815 16.10168c-.9852 2.684616-1.971174 5.369718-2.957912 8.05528l-5.929507 16.118696c-.989749 2.687304-1.98024 5.375018-2.971462 8.063118l-5.956015 16.133034-5.97303 16.141105c-.996893 2.69079-1.994474 5.381867-2.992731 8.073206l-5.997566 16.150978c-1.000917 2.692287-2.002489 5.384787-3.004703 8.077473l-6.02092 16.158173c-1.004743 2.693337-2.010109 5.386812-3.016084 8.0804l-6.043089 16.162688-6.057212 16.16421-6.070809 16.164541-6.08388 16.163683-6.096424 16.161632c-1.017087 2.693369-2.034675 5.386602-3.052753 8.079676l-6.114256 16.156326c-5.099966 13.461676-10.21163 26.918117-15.333624 40.366221l-6.151261 16.133526-6.160652 16.124333-6.169516 16.113949-6.177854 16.102374c-1.030308 2.682699-2.060941 5.364865-3.091889 8.046475l-4.131121 10.73643-4.138365 10.737467-4.142266 10.730307-4.142819 10.714949-6.207949 16.025695-4.129567 10.640689-6.172388 15.875877-4.095405 10.515193-4.075885 10.450648-6.069909 15.537019-4.012449 10.253421-7.927862 20.218935-5.847819 14.880002-5.751206 14.605663-5.643302 14.303654-3.696678 9.354322-7.221045 18.23629-5.251839 13.23163-5.098769 12.81895-4.934406 12.3786-6.304019 15.772-4.506984 11.24354-4.304984 10.71096-4.091692 10.15073-3.867109 9.56282-3.631235 8.94725-3.384068 8.30401-2.113155 5.16499-1.994939 4.85861-1.873378 4.54403-1.748472 4.22126-1.620218 3.89028-1.488621 3.55112c-.236951.56313-.468279 1.11179-.693915 1.64581l-1.28495 3.02698c-2.025878 4.74754-3.46858 7.99648-4.258405 9.57603l-1.023517 2.0469.880254 2.11247.181086.4387.34451.85955c.388258.98887.728824 1.92883 1.02332 2.81874l.241179.7505c1.264851 4.06007 1.516093 7.0007.923554 8.7026-.479275 1.37657-1.913257 2.1423-5.522335 2.10927l-.44314-.00639-117.506271.001c-4.480942.0898-6.479847-.83171-7.124818-2.38124-.787353-1.8916-.452764-5.40164 1.312133-10.38783l.290599-.79954c.05043-.13529.101861-.2716.154299-.40893l.326763-.8361.351211-.86033.880254-2.11247-1.023517-2.0469c-.510048-1.02003-1.326406-2.85869-2.426559-5.4585l-1.011963-2.41346c-.180069-.43287-.365799-.88093-.557123-1.34402l-1.214558-2.95759c-.213441-.52255-.432345-1.05979-.656648-1.61156l-1.410062-3.48361c-.245632-.60921-.496529-1.23262-.752628-1.87005l-1.598478-3.99153-1.72015-4.3201-1.83867-4.64061-1.95404-4.95308-2.06626-5.25751-3.302906-8.43946-3.537676-9.07917-3.761811-9.69173-3.975311-10.27713-4.178178-10.83538-2.892904-7.52032-4.492656-11.70547-4.667165-12.19132-4.83104-12.65003-4.984279-13.08157-5.126885-13.48598-5.258857-13.86322-7.198718-19.024202-5.525435-14.637884-5.62196-14.924631-5.707849-15.184225-5.783106-15.41667-5.847726-15.621964-3.929135-10.515287-5.931797-15.903785-5.968062-16.036677-5.993691-16.142418-4.004782-10.806949-6.012775-16.258318-6.010047-16.291656c-.667237-1.811031-1.334227-3.622176-2.000904-5.433268l-2.951567-8.02244c-1.927823-5.24264-3.854584-10.487817-5.780201-15.735335l-5.773337-15.749373c-.961623-2.625999-1.92294-5.252534-2.883939-7.879579l-5.762107-15.768203-5.753999-15.77927c-.958296-2.630734-1.916234-5.261881-2.873803-7.893414l-5.740903-15.793643c-1.912103-5.265963-3.822648-10.533275-5.731551-15.801739l-5.7217-15.808647-5.711353-15.814366c-2.853006-7.908415-5.701946-15.818529-8.546539-23.729673l-5.683306-15.823465c-.946225-2.637407-1.891945-5.274879-2.837151-7.912392l-5.664987-15.825358c-1.886217-5.275149-3.770295-10.55026-5.65215-15.825136l-5.638818-15.823724-5.624986-15.821123-5.610658-15.817336c-2.801664-7.907522-5.597769-15.813178-8.388033-23.716299l-5.57266-15.802665c-2.782354-7.899444-5.558682-15.795907-8.328704-23.688722l-5.531552-15.780565-5.514238-15.769646c-.917569-2.627299-1.834396-5.254092-2.75047-7.880357l-5.487334-15.751038c-2.739069-7.872146-5.471179-15.739083-8.19605-23.600142l-5.440006-15.714083c-.905031-2.617642-1.809237-5.234581-2.712608-7.850793l-5.410116-15.688345c-.899988-2.613203-1.799119-5.22563-2.697384-7.837255l-5.379107-15.659932c-2.684272-7.824959-5.360557-15.642257-8.028578-23.451227l-5.324937-15.606635c-.885625-2.599189-1.770311-5.197404-2.654048-7.794618l-5.2909422-15.571093-5.2676574-15.545911c-3.5038992-10.355283-6.9919433-20.692986-10.4634687-31.011525l-5.1948162-15.463237c-6.9096819-20.597956-13.7519622-41.116085-20.5215334-61.54171l-5.0634625-15.301677c-11.7825484-35.6625162-23.3383612-71.0320328-34.6389925-106.0406081l-.8339544-2.585837.472606-.1062199.5311782-.1168008 1.0475959-.2204466c.5188885-.1058431 1.0304238-.2051206 1.5346546-.2978537l.9987367-.1767466.9793448-.1593325c1.2929037-.2008508 2.5343268-.3553649 3.7251941-.4639448l.8836857-.0728285c.1457059-.0107047.2906255-.0206933.4347605-.0299665l.8554106-.0470612c10.7163206-.4875326 16.9221406 3.1478002 19.4103281 10.5609279l.14362.4359964 405.8186381 1154.9518069c.985053 2.80344 3.632712 4.67947 6.604177 4.67947h77.769362c2.939849 0 5.566447-1.83692 6.5751-4.59832l421.876101-1154.9749929c4.069466-10.8507358 13.347819-14.4447201 29.507364-10.2992503l1.00835.2662957c.169526.0460292.339787.0928819.510785.1405589z" fill="#194880"/></g></g></g></svg>