<svg xmlns="http://www.w3.org/2000/svg" aria-labelledby="magnify-plusTitleID magnify-plusDescID" viewBox="0 0 100 100"><desc>An icon of a plus symbol</desc><path fill="#fff" fill-rule="evenodd" d="m2.403 87.402 25.811-23.773q-6.803-9.859-6.803-22.284 0-10.686 5.229-19.714 5.23-9.027 14.315-14.33Q50.042 2 60.747 2q16.264 0 27.76 11.557T100 41.348q0 16.32-11.493 27.833t-27.76 11.512q-12.948 0-23.402-7.703L11.204 97.178Q9.378 99 6.638 99c-2.74 0-3.39-.649-4.689-1.946Q0 95.11 0 92.374q0-2.817 2.406-4.969zm58.34-19.879q10.706 0 18.382-7.703t7.677-18.472c0-10.768-2.559-13.308-7.677-18.389q-7.676-7.62-18.382-7.621-10.87 0-18.506 7.621c-7.636 7.621-7.635 11.21-7.635 18.39s2.559 13.335 7.677 18.47q7.676 7.705 18.464 7.704m-13.36-21.868h10.208v10.188h7.22V45.655h10.206v-7.206H64.81V28.26h-7.22v10.188H47.385z"/></svg>