<svg xmlns="http://www.w3.org/2000/svg" aria-labelledby="magnify-minusTitleID magnify-minusDescID" viewBox="0 0 100 100"><desc>An icon of a minus symbol</desc><path fill="#fff" fill-rule="evenodd" d="m2.324 87.382 25.894-23.815q-6.89-10.04-6.89-22.236 0-10.704 5.27-19.748Q31.87 12.539 40.915 7.27T60.664 2c10.705 0 13.72 1.757 19.75 5.27q9.045 5.27 14.316 14.313Q100 30.627 100 41.33c0 10.704-1.757 13.732-5.27 19.789q-5.27 9.085-14.315 14.354-9.046 5.27-19.75 5.27-12.866 0-23.237-7.717L11.12 97.257Q9.213 99 6.638 99q-2.74 0-4.689-1.949C0 95.102 0 94.189 0 92.362q0-2.904 2.324-4.977zm58.344-19.917q10.788 0 18.423-7.675c7.635-7.675 7.635-11.272 7.635-18.463s-2.545-13.331-7.635-18.42-11.231-7.635-18.423-7.635-13.333 2.545-18.424 7.634-7.635 11.23-7.635 18.421 2.545 13.345 7.635 18.463 11.232 7.675 18.424 7.675M45.73 46.14h31.288v-9.543H45.73z"/></svg>