<svg xmlns="http://www.w3.org/2000/svg" aria-labelledby="magnify-plusTitleID magnify-plusDescID" viewBox="0 0 100 100"><path fill="#fff" fill-rule="evenodd" d="m2.403 87.402 25.811-23.773c-4.535-6.573-6.803-14-6.803-22.284 0-7.124 1.743-13.695 5.229-19.714 3.486-6.018 8.258-10.795 14.315-14.33C47.013 3.768 53.61 2 60.747 2c10.843 0 20.096 3.852 27.76 11.557 7.664 7.705 11.495 16.969 11.493 27.791 0 10.88-3.83 20.158-11.493 27.833-7.662 7.675-16.915 11.512-27.76 11.512-8.632 0-16.432-2.568-23.402-7.703L11.204 97.178C9.987 98.393 8.465 99 6.638 99s-3.39-.649-4.689-1.946C.65 95.757 0 94.197 0 92.374c0-1.878.802-3.534 2.406-4.969zm58.34-19.879c7.137 0 13.265-2.567 18.382-7.703 5.118-5.136 7.677-11.293 7.677-18.472S84.243 28.04 79.125 22.96c-5.117-5.08-11.245-7.621-18.382-7.621-7.247 0-13.415 2.54-18.506 7.621s-7.635 11.21-7.635 18.39 2.559 13.335 7.677 18.47c5.117 5.137 11.272 7.704 18.464 7.704zm-13.36-21.868h10.208v10.188h7.22V45.655h10.206v-7.206H64.81V28.26h-7.22v10.188H47.385z"/></svg>