<svg xmlns="http://www.w3.org/2000/svg" aria-labelledby="magnify-minusTitleID magnify-minusDescID" viewBox="0 0 100 100"><desc>An icon of a minus symbol</desc><path fill="#fff" fill-rule="evenodd" d="m2.324 87.382 25.894-23.815c-4.593-6.693-6.89-14.106-6.89-22.236 0-7.136 1.757-13.719 5.27-19.748 3.514-6.03 8.286-10.8 14.316-14.313C46.944 3.757 53.527 2 60.664 2s13.72 1.757 19.75 5.27c6.03 3.513 10.802 8.284 14.316 14.313 3.513 6.03 5.27 12.612 5.27 19.748s-1.757 13.732-5.27 19.789c-3.514 6.057-8.285 10.841-14.315 14.354-6.03 3.513-12.614 5.27-19.75 5.27-8.577 0-16.323-2.572-23.237-7.717L11.12 97.257C9.85 98.42 8.355 99 6.638 99c-1.826 0-3.39-.65-4.689-1.949S0 94.189 0 92.362c0-1.936.775-3.595 2.324-4.977zm58.344-19.917c7.192 0 13.333-2.558 18.423-7.675s7.635-11.272 7.635-18.463-2.545-13.331-7.635-18.42-11.231-7.635-18.423-7.635-13.333 2.545-18.424 7.634-7.635 11.23-7.635 18.421 2.545 13.345 7.635 18.463 11.232 7.675 18.424 7.675zM45.73 46.14h31.288v-9.543H45.73z"/></svg>