<svg xmlns="http://www.w3.org/2000/svg" width="20" height="16" aria-labelledby="readAloudTitleID readAloudDescriptionID"><desc>An illustration of headphones</desc><g fill="#fff" fill-rule="evenodd"><path d="M16.2 15.2h-1.8v-7h1.8z"/><path d="M9.99.123c-4.636 0-8.387 4.016-8.62 8.372C.697 8.876.053 9.547.07 11.55c.034 4.163 3.218 3.601 3.218 3.601v-6.89s-.053-.012-.144-.022C3.41 4.649 6.72 2.142 9.99 2.063c3.178-.077 6.612 2.585 6.88 6.172a2 2 0 0 0-.18.026v6.89s3.185.562 3.22-3.6c.016-1.968-.605-2.643-1.265-3.035C18.423 4.15 14.677.123 9.99.123"/><path d="M3.8 15.2h1.8v-7H3.8z"/></g></svg>