<svg xmlns="http://www.w3.org/2000/svg" width="100" height="100"><g fill="#fff"><path d="M38.171 1.17C18.865 3.526 7.399 18.667 9.645 36.866l.138.992c1.322 8.566 5.977 16.301 12.664 21.54l.437.333-.826.282C7.471 65.166 0 77.4 0 96.126c0 1.726 1.4 3.125 3.125 3.125h75c1.726 0 3.125-1.399 3.125-3.125L81.24 95c-.28-17.167-7.011-28.73-19.95-34.175l-.753-.307.345-.255c4.698-3.617 8.273-8.807 10.702-15.494l.103-.344a3.125 3.125 0 0 0-1.908-3.635l-12.616-2.96L72.7 32.614a3.125 3.125 0 0 0 1.531-3.92l-.429-1.117C66.392 8.682 54.372-.376 38.171 1.17m29.173 27.119-14.305 7.085-.346.197c-2.068 1.354-1.806 4.581.6 5.516l11.26 4.377-.045.105c-3 6.52-7.382 10.764-13.203 12.897-2.967 1.088-2.63 5.389.47 6l.91.19C66.8 67.76 74.096 76.956 74.92 93.001H6.325l.062-.988c1.14-16.539 9.432-25.592 25.338-27.934 3.134-.461 3.672-4.756.748-5.976-8.92-3.72-15.426-12.285-16.625-22.002-1.828-14.81 7.246-26.795 22.999-28.719C51.35 6.19 60.675 12.757 67.124 27.761z"/><path d="M76.504 22.425a3.125 3.125 0 0 1 4.322-.92c6.187 4.015 9.424 9.477 9.424 16.121s-3.237 12.106-9.424 16.121a3.125 3.125 0 1 1-3.402-5.242C81.904 45.597 84 42.059 84 37.626s-2.097-7.971-6.576-10.879a3.125 3.125 0 0 1-.92-4.322"/><path d="M86.677 19.184a3.125 3.125 0 0 1 4.39-.506c6.08 4.822 9.183 11.223 9.183 18.948s-3.104 14.126-9.183 18.948a3.125 3.125 0 0 1-3.884-4.896C91.77 48.038 94 43.44 94 37.626s-2.23-10.413-6.817-14.052a3.125 3.125 0 0 1-.506-4.39"/></g></svg>